ISO-10303-21;
HEADER;
/* Generated by software containing ST-Developer
 * from STEP Tools, Inc. (www.steptools.com) 
 */
/* OPTION: using custom renumber hook */

FILE_DESCRIPTION(
/* description */ ('STEP AP242 Edition 2',
'CAx-IF Rec.Pracs.---Representation and Presentation of Product Manufa
cturing Information (PMI)---4.0---2014-10-13',
'CAx-IF Rec.Pracs.---3D Tessellated Geometry---0.4---2014-09-14','2;1',
'CAx-IF Rec.Pracs.---User Defined Attributes---1.5---2016-08-15'),
/* implementation_level */ '2;1');

FILE_NAME(
/* name */ 'Part Studio 1',
/* time_stamp */ '2026-06-07T08:17:52Z',
/* author */ (''),
/* organization */ (''),
/* preprocessor_version */ 'ST-DEVELOPER v20',
/* originating_system */ 'ONSHAPE BY PTC INC, 1.216',
/* authorisation */ '  ');

FILE_SCHEMA (('AP242_MANAGED_MODEL_BASED_3D_ENGINEERING_MIM_LF { 1 0 10303 442 3 1 4 }'));
ENDSEC;

DATA;
#10=(
BOUNDED_CURVE()
B_SPLINE_CURVE(2,(#1569,#1570,#1571),.UNSPECIFIED.,.F.,.F.)
B_SPLINE_CURVE_WITH_KNOTS((3,3),(0.,1.),.PIECEWISE_BEZIER_KNOTS.)
CURVE()
GEOMETRIC_REPRESENTATION_ITEM()
RATIONAL_B_SPLINE_CURVE((1.,9.,1.))
REPRESENTATION_ITEM('')
);
#11=(
BOUNDED_CURVE()
B_SPLINE_CURVE(2,(#1575,#1576,#1577),.UNSPECIFIED.,.F.,.F.)
B_SPLINE_CURVE_WITH_KNOTS((3,3),(0.,1.),.PIECEWISE_BEZIER_KNOTS.)
CURVE()
GEOMETRIC_REPRESENTATION_ITEM()
RATIONAL_B_SPLINE_CURVE((1.,9.,1.))
REPRESENTATION_ITEM('')
);
#12=B_SPLINE_CURVE_WITH_KNOTS('',2,(#1304,#1305,#1306),.UNSPECIFIED.,.F.,
 .F.,(3,3),(0.,1.),.PIECEWISE_BEZIER_KNOTS.);
#13=B_SPLINE_CURVE_WITH_KNOTS('',2,(#1311,#1312,#1313),.UNSPECIFIED.,.F.,
 .F.,(3,3),(0.,1.),.PIECEWISE_BEZIER_KNOTS.);
#14=B_SPLINE_CURVE_WITH_KNOTS('',2,(#1324,#1325,#1326),.UNSPECIFIED.,.F.,
 .F.,(3,3),(0.,1.),.PIECEWISE_BEZIER_KNOTS.);
#15=B_SPLINE_CURVE_WITH_KNOTS('',2,(#1330,#1331,#1332),.UNSPECIFIED.,.F.,
 .F.,(3,3),(0.,1.),.PIECEWISE_BEZIER_KNOTS.);
#16=B_SPLINE_CURVE_WITH_KNOTS('',2,(#1347,#1348,#1349),.UNSPECIFIED.,.F.,
 .F.,(3,3),(0.,1.),.PIECEWISE_BEZIER_KNOTS.);
#17=B_SPLINE_CURVE_WITH_KNOTS('',2,(#1353,#1354,#1355),.UNSPECIFIED.,.F.,
 .F.,(3,3),(0.,1.),.PIECEWISE_BEZIER_KNOTS.);
#18=B_SPLINE_CURVE_WITH_KNOTS('',2,(#1370,#1371,#1372),.UNSPECIFIED.,.F.,
 .F.,(3,3),(0.,1.),.PIECEWISE_BEZIER_KNOTS.);
#19=B_SPLINE_CURVE_WITH_KNOTS('',2,(#1376,#1377,#1378),.UNSPECIFIED.,.F.,
 .F.,(3,3),(0.,1.),.PIECEWISE_BEZIER_KNOTS.);
#20=B_SPLINE_CURVE_WITH_KNOTS('',2,(#1387,#1388,#1389),.UNSPECIFIED.,.F.,
 .F.,(3,3),(0.,1.),.PIECEWISE_BEZIER_KNOTS.);
#21=B_SPLINE_CURVE_WITH_KNOTS('',2,(#1393,#1394,#1395),.UNSPECIFIED.,.F.,
 .F.,(3,3),(0.,1.),.PIECEWISE_BEZIER_KNOTS.);
#22=B_SPLINE_CURVE_WITH_KNOTS('',2,(#1404,#1405,#1406),.UNSPECIFIED.,.F.,
 .F.,(3,3),(0.,1.),.PIECEWISE_BEZIER_KNOTS.);
#23=B_SPLINE_CURVE_WITH_KNOTS('',2,(#1410,#1411,#1412),.UNSPECIFIED.,.F.,
 .F.,(3,3),(0.,1.),.PIECEWISE_BEZIER_KNOTS.);
#24=B_SPLINE_CURVE_WITH_KNOTS('',2,(#1421,#1422,#1423),.UNSPECIFIED.,.F.,
 .F.,(3,3),(0.,1.),.PIECEWISE_BEZIER_KNOTS.);
#25=B_SPLINE_CURVE_WITH_KNOTS('',2,(#1427,#1428,#1429),.UNSPECIFIED.,.F.,
 .F.,(3,3),(0.,1.),.PIECEWISE_BEZIER_KNOTS.);
#26=B_SPLINE_CURVE_WITH_KNOTS('',2,(#1438,#1439,#1440),.UNSPECIFIED.,.F.,
 .F.,(3,3),(0.,1.),.PIECEWISE_BEZIER_KNOTS.);
#27=B_SPLINE_CURVE_WITH_KNOTS('',2,(#1444,#1445,#1446),.UNSPECIFIED.,.F.,
 .F.,(3,3),(0.,1.),.PIECEWISE_BEZIER_KNOTS.);
#28=B_SPLINE_CURVE_WITH_KNOTS('',2,(#1455,#1456,#1457),.UNSPECIFIED.,.F.,
 .F.,(3,3),(0.,1.),.PIECEWISE_BEZIER_KNOTS.);
#29=B_SPLINE_CURVE_WITH_KNOTS('',2,(#1461,#1462,#1463),.UNSPECIFIED.,.F.,
 .F.,(3,3),(0.,1.),.PIECEWISE_BEZIER_KNOTS.);
#30=B_SPLINE_CURVE_WITH_KNOTS('',2,(#1472,#1473,#1474),.UNSPECIFIED.,.F.,
 .F.,(3,3),(0.,1.),.PIECEWISE_BEZIER_KNOTS.);
#31=B_SPLINE_CURVE_WITH_KNOTS('',2,(#1478,#1479,#1480),.UNSPECIFIED.,.F.,
 .F.,(3,3),(0.,1.),.PIECEWISE_BEZIER_KNOTS.);
#32=B_SPLINE_CURVE_WITH_KNOTS('',2,(#1489,#1490,#1491),.UNSPECIFIED.,.F.,
 .F.,(3,3),(0.,1.),.PIECEWISE_BEZIER_KNOTS.);
#33=B_SPLINE_CURVE_WITH_KNOTS('',2,(#1495,#1496,#1497),.UNSPECIFIED.,.F.,
 .F.,(3,3),(0.,1.),.PIECEWISE_BEZIER_KNOTS.);
#34=B_SPLINE_CURVE_WITH_KNOTS('',2,(#1506,#1507,#1508),.UNSPECIFIED.,.F.,
 .F.,(3,3),(0.,1.),.PIECEWISE_BEZIER_KNOTS.);
#35=B_SPLINE_CURVE_WITH_KNOTS('',2,(#1512,#1513,#1514),.UNSPECIFIED.,.F.,
 .F.,(3,3),(0.,1.),.PIECEWISE_BEZIER_KNOTS.);
#36=B_SPLINE_CURVE_WITH_KNOTS('',2,(#1586,#1587,#1588),.UNSPECIFIED.,.F.,
 .F.,(3,3),(0.,1.),.PIECEWISE_BEZIER_KNOTS.);
#37=B_SPLINE_CURVE_WITH_KNOTS('',2,(#1589,#1590,#1591),.UNSPECIFIED.,.F.,
 .F.,(3,3),(0.,1.),.PIECEWISE_BEZIER_KNOTS.);
#38=B_SPLINE_CURVE_WITH_KNOTS('',2,(#1603,#1604,#1605),.UNSPECIFIED.,.F.,
 .F.,(3,3),(0.,1.),.PIECEWISE_BEZIER_KNOTS.);
#39=B_SPLINE_CURVE_WITH_KNOTS('',2,(#1610,#1611,#1612),.UNSPECIFIED.,.F.,
 .F.,(3,3),(0.,1.),.PIECEWISE_BEZIER_KNOTS.);
#40=B_SPLINE_CURVE_WITH_KNOTS('',2,(#1635,#1636,#1637),.UNSPECIFIED.,.F.,
 .F.,(3,3),(0.,1.),.PIECEWISE_BEZIER_KNOTS.);
#41=B_SPLINE_CURVE_WITH_KNOTS('',2,(#1641,#1642,#1643),.UNSPECIFIED.,.F.,
 .F.,(3,3),(0.,1.),.PIECEWISE_BEZIER_KNOTS.);
#42=B_SPLINE_CURVE_WITH_KNOTS('',2,(#1652,#1653,#1654),.UNSPECIFIED.,.F.,
 .F.,(3,3),(0.,1.),.PIECEWISE_BEZIER_KNOTS.);
#43=B_SPLINE_CURVE_WITH_KNOTS('',2,(#1658,#1659,#1660),.UNSPECIFIED.,.F.,
 .F.,(3,3),(0.,1.),.PIECEWISE_BEZIER_KNOTS.);
#44=B_SPLINE_CURVE_WITH_KNOTS('',2,(#1669,#1670,#1671),.UNSPECIFIED.,.F.,
 .F.,(3,3),(0.,1.),.PIECEWISE_BEZIER_KNOTS.);
#45=B_SPLINE_CURVE_WITH_KNOTS('',2,(#1675,#1676,#1677),.UNSPECIFIED.,.F.,
 .F.,(3,3),(0.,1.),.PIECEWISE_BEZIER_KNOTS.);
#46=B_SPLINE_CURVE_WITH_KNOTS('',2,(#1686,#1687,#1688),.UNSPECIFIED.,.F.,
 .F.,(3,3),(0.,1.),.PIECEWISE_BEZIER_KNOTS.);
#47=B_SPLINE_CURVE_WITH_KNOTS('',2,(#1692,#1693,#1694),.UNSPECIFIED.,.F.,
 .F.,(3,3),(0.,1.),.PIECEWISE_BEZIER_KNOTS.);
#48=B_SPLINE_CURVE_WITH_KNOTS('',2,(#1703,#1704,#1705),.UNSPECIFIED.,.F.,
 .F.,(3,3),(0.,1.),.PIECEWISE_BEZIER_KNOTS.);
#49=B_SPLINE_CURVE_WITH_KNOTS('',2,(#1709,#1710,#1711),.UNSPECIFIED.,.F.,
 .F.,(3,3),(0.,1.),.PIECEWISE_BEZIER_KNOTS.);
#50=B_SPLINE_CURVE_WITH_KNOTS('',2,(#1720,#1721,#1722),.UNSPECIFIED.,.F.,
 .F.,(3,3),(0.,1.),.PIECEWISE_BEZIER_KNOTS.);
#51=B_SPLINE_CURVE_WITH_KNOTS('',2,(#1723,#1724,#1725),.UNSPECIFIED.,.F.,
 .F.,(3,3),(0.,1.),.PIECEWISE_BEZIER_KNOTS.);
#52=ELLIPSE('',#971,64.7219941020012,17.02525662716);
#53=ELLIPSE('',#972,64.7219941020012,17.02525662716);
#54=B_SPLINE_SURFACE_WITH_KNOTS('',3,1,((#1251,#1252),(#1253,#1254),(#1255,
#1256),(#1257,#1258),(#1259,#1260),(#1261,#1262),(#1263,#1264),(#1265,#1266),
(#1267,#1268),(#1269,#1270),(#1271,#1272),(#1273,#1274),(#1275,#1276),(#1277,
#1278),(#1279,#1280),(#1281,#1282),(#1283,#1284),(#1285,#1286),(#1287,#1288)),
 .SURF_OF_LINEAR_EXTRUSION.,.T.,.F.,.F.,(1,1,1,1,1,1,1,1,1,1,1,1,1,1,1,
1,1,1,1,1,1,1,1),(2,2),(-1.17809724509617,-0.785398163397448,-0.392699081698725,
0.,0.392699081698724,0.785398163397448,1.17809724509617,1.5707963267949,
1.96349540849362,2.35619449019234,2.74889357189107,3.14159265358979,3.53429173528852,
3.92699081698724,4.31968989868597,4.71238898038469,5.10508806208341,5.49778714378214,
5.89048622548086,6.28318530717959,6.67588438887831,7.06858347057703,7.46128255227576),
(0.,1.),.UNSPECIFIED.);
#55=B_SPLINE_SURFACE_WITH_KNOTS('',3,1,((#1296,#1297),(#1298,#1299),(#1300,
#1301),(#1302,#1303)),.SURF_OF_LINEAR_EXTRUSION.,.F.,.F.,.F.,(4,4),(2,2),
(0.,1.),(0.,1.),.PIECEWISE_BEZIER_KNOTS.);
#56=B_SPLINE_SURFACE_WITH_KNOTS('',3,1,((#1316,#1317),(#1318,#1319),(#1320,
#1321),(#1322,#1323)),.SURF_OF_LINEAR_EXTRUSION.,.F.,.F.,.F.,(4,4),(2,2),
(0.,1.),(0.,1.),.PIECEWISE_BEZIER_KNOTS.);
#57=B_SPLINE_SURFACE_WITH_KNOTS('',3,1,((#1339,#1340),(#1341,#1342),(#1343,
#1344),(#1345,#1346)),.SURF_OF_LINEAR_EXTRUSION.,.F.,.F.,.F.,(4,4),(2,2),
(0.,1.),(0.,1.),.PIECEWISE_BEZIER_KNOTS.);
#58=B_SPLINE_SURFACE_WITH_KNOTS('',3,1,((#1362,#1363),(#1364,#1365),(#1366,
#1367),(#1368,#1369)),.SURF_OF_LINEAR_EXTRUSION.,.F.,.F.,.F.,(4,4),(2,2),
(0.,1.),(0.,1.),.PIECEWISE_BEZIER_KNOTS.);
#59=B_SPLINE_SURFACE_WITH_KNOTS('',3,1,((#1379,#1380),(#1381,#1382),(#1383,
#1384),(#1385,#1386)),.SURF_OF_LINEAR_EXTRUSION.,.F.,.F.,.F.,(4,4),(2,2),
(0.,1.),(0.,1.),.PIECEWISE_BEZIER_KNOTS.);
#60=B_SPLINE_SURFACE_WITH_KNOTS('',3,1,((#1396,#1397),(#1398,#1399),(#1400,
#1401),(#1402,#1403)),.SURF_OF_LINEAR_EXTRUSION.,.F.,.F.,.F.,(4,4),(2,2),
(0.,1.),(0.,1.),.PIECEWISE_BEZIER_KNOTS.);
#61=B_SPLINE_SURFACE_WITH_KNOTS('',3,1,((#1413,#1414),(#1415,#1416),(#1417,
#1418),(#1419,#1420)),.SURF_OF_LINEAR_EXTRUSION.,.F.,.F.,.F.,(4,4),(2,2),
(0.,1.),(0.,1.),.PIECEWISE_BEZIER_KNOTS.);
#62=B_SPLINE_SURFACE_WITH_KNOTS('',3,1,((#1430,#1431),(#1432,#1433),(#1434,
#1435),(#1436,#1437)),.SURF_OF_LINEAR_EXTRUSION.,.F.,.F.,.F.,(4,4),(2,2),
(0.,1.),(0.,1.),.PIECEWISE_BEZIER_KNOTS.);
#63=B_SPLINE_SURFACE_WITH_KNOTS('',3,1,((#1447,#1448),(#1449,#1450),(#1451,
#1452),(#1453,#1454)),.SURF_OF_LINEAR_EXTRUSION.,.F.,.F.,.F.,(4,4),(2,2),
(0.,1.),(0.,1.),.PIECEWISE_BEZIER_KNOTS.);
#64=B_SPLINE_SURFACE_WITH_KNOTS('',3,1,((#1464,#1465),(#1466,#1467),(#1468,
#1469),(#1470,#1471)),.SURF_OF_LINEAR_EXTRUSION.,.F.,.F.,.F.,(4,4),(2,2),
(0.,1.),(0.,1.),.PIECEWISE_BEZIER_KNOTS.);
#65=B_SPLINE_SURFACE_WITH_KNOTS('',3,1,((#1481,#1482),(#1483,#1484),(#1485,
#1486),(#1487,#1488)),.SURF_OF_LINEAR_EXTRUSION.,.F.,.F.,.F.,(4,4),(2,2),
(0.,1.),(0.,1.),.PIECEWISE_BEZIER_KNOTS.);
#66=B_SPLINE_SURFACE_WITH_KNOTS('',3,1,((#1498,#1499),(#1500,#1501),(#1502,
#1503),(#1504,#1505)),.SURF_OF_LINEAR_EXTRUSION.,.F.,.F.,.F.,(4,4),(2,2),
(0.,1.),(0.,1.),.PIECEWISE_BEZIER_KNOTS.);
#67=B_SPLINE_SURFACE_WITH_KNOTS('',3,1,((#1515,#1516),(#1517,#1518),(#1519,
#1520),(#1521,#1522),(#1523,#1524),(#1525,#1526),(#1527,#1528),(#1529,#1530),
(#1531,#1532),(#1533,#1534),(#1535,#1536),(#1537,#1538),(#1539,#1540),(#1541,
#1542),(#1543,#1544),(#1545,#1546),(#1547,#1548),(#1549,#1550),(#1551,#1552),
(#1553,#1554),(#1555,#1556),(#1557,#1558),(#1559,#1560),(#1561,#1562),(#1563,
#1564),(#1565,#1566),(#1567,#1568)),.SURF_OF_LINEAR_EXTRUSION.,.F.,.F.,
 .F.,(4,1,1,1,1,1,1,1,1,1,1,1,1,1,1,1,1,1,1,1,1,1,1,1,4),(2,2),(0.,0.015625,
0.03125,0.0625,0.09375,0.125,0.15625,0.1875,0.25,0.3125,0.375,0.4375,0.5,
0.5625,0.625,0.6875,0.75,0.8125,0.84375,0.875,0.90625,0.9375,0.96875,0.984375,
1.),(0.,1.),.UNSPECIFIED.);
#68=B_SPLINE_SURFACE_WITH_KNOTS('',3,1,((#1578,#1579),(#1580,#1581),(#1582,
#1583),(#1584,#1585)),.SURF_OF_LINEAR_EXTRUSION.,.F.,.F.,.F.,(4,4),(2,2),
(0.,1.),(0.,1.),.PIECEWISE_BEZIER_KNOTS.);
#69=B_SPLINE_SURFACE_WITH_KNOTS('',3,1,((#1595,#1596),(#1597,#1598),(#1599,
#1600),(#1601,#1602)),.SURF_OF_LINEAR_EXTRUSION.,.F.,.F.,.F.,(4,4),(2,2),
(0.,1.),(0.,1.),.PIECEWISE_BEZIER_KNOTS.);
#70=B_SPLINE_SURFACE_WITH_KNOTS('',3,1,((#1627,#1628),(#1629,#1630),(#1631,
#1632),(#1633,#1634)),.SURF_OF_LINEAR_EXTRUSION.,.F.,.F.,.F.,(4,4),(2,2),
(0.,1.),(0.,1.),.PIECEWISE_BEZIER_KNOTS.);
#71=B_SPLINE_SURFACE_WITH_KNOTS('',3,1,((#1644,#1645),(#1646,#1647),(#1648,
#1649),(#1650,#1651)),.SURF_OF_LINEAR_EXTRUSION.,.F.,.F.,.F.,(4,4),(2,2),
(0.,1.),(0.,1.),.PIECEWISE_BEZIER_KNOTS.);
#72=B_SPLINE_SURFACE_WITH_KNOTS('',3,1,((#1661,#1662),(#1663,#1664),(#1665,
#1666),(#1667,#1668)),.SURF_OF_LINEAR_EXTRUSION.,.F.,.F.,.F.,(4,4),(2,2),
(0.,1.),(0.,1.),.PIECEWISE_BEZIER_KNOTS.);
#73=B_SPLINE_SURFACE_WITH_KNOTS('',3,1,((#1678,#1679),(#1680,#1681),(#1682,
#1683),(#1684,#1685)),.SURF_OF_LINEAR_EXTRUSION.,.F.,.F.,.F.,(4,4),(2,2),
(0.,1.),(0.,1.),.PIECEWISE_BEZIER_KNOTS.);
#74=B_SPLINE_SURFACE_WITH_KNOTS('',3,1,((#1695,#1696),(#1697,#1698),(#1699,
#1700),(#1701,#1702)),.SURF_OF_LINEAR_EXTRUSION.,.F.,.F.,.F.,(4,4),(2,2),
(0.,1.),(0.,1.),.PIECEWISE_BEZIER_KNOTS.);
#75=B_SPLINE_SURFACE_WITH_KNOTS('',3,1,((#1712,#1713),(#1714,#1715),(#1716,
#1717),(#1718,#1719)),.SURF_OF_LINEAR_EXTRUSION.,.F.,.F.,.F.,(4,4),(2,2),
(0.,1.),(0.,1.),.PIECEWISE_BEZIER_KNOTS.);
#76=LINE('',#1174,#135);
#77=LINE('',#1177,#136);
#78=LINE('',#1179,#137);
#79=LINE('',#1181,#138);
#80=LINE('',#1183,#139);
#81=LINE('',#1185,#140);
#82=LINE('',#1187,#141);
#83=LINE('',#1189,#142);
#84=LINE('',#1191,#143);
#85=LINE('',#1193,#144);
#86=LINE('',#1195,#145);
#87=LINE('',#1196,#146);
#88=LINE('',#1201,#147);
#89=LINE('',#1204,#148);
#90=LINE('',#1206,#149);
#91=LINE('',#1208,#150);
#92=LINE('',#1210,#151);
#93=LINE('',#1213,#152);
#94=LINE('',#1215,#153);
#95=LINE('',#1217,#154);
#96=LINE('',#1219,#155);
#97=LINE('',#1222,#156);
#98=LINE('',#1224,#157);
#99=LINE('',#1226,#158);
#100=LINE('',#1228,#159);
#101=LINE('',#1231,#160);
#102=LINE('',#1233,#161);
#103=LINE('',#1235,#162);
#104=LINE('',#1309,#163);
#105=LINE('',#1315,#164);
#106=LINE('',#1328,#165);
#107=LINE('',#1334,#166);
#108=LINE('',#1336,#167);
#109=LINE('',#1338,#168);
#110=LINE('',#1351,#169);
#111=LINE('',#1357,#170);
#112=LINE('',#1359,#171);
#113=LINE('',#1361,#172);
#114=LINE('',#1374,#173);
#115=LINE('',#1391,#174);
#116=LINE('',#1408,#175);
#117=LINE('',#1425,#176);
#118=LINE('',#1442,#177);
#119=LINE('',#1459,#178);
#120=LINE('',#1476,#179);
#121=LINE('',#1493,#180);
#122=LINE('',#1510,#181);
#123=LINE('',#1573,#182);
#124=LINE('',#1608,#183);
#125=LINE('',#1614,#184);
#126=LINE('',#1618,#185);
#127=LINE('',#1622,#186);
#128=LINE('',#1624,#187);
#129=LINE('',#1626,#188);
#130=LINE('',#1639,#189);
#131=LINE('',#1656,#190);
#132=LINE('',#1673,#191);
#133=LINE('',#1690,#192);
#134=LINE('',#1707,#193);
#135=VECTOR('',#1015,1000.);
#136=VECTOR('',#1016,1000.);
#137=VECTOR('',#1017,1000.);
#138=VECTOR('',#1018,1000.);
#139=VECTOR('',#1021,1000.);
#140=VECTOR('',#1022,1000.);
#141=VECTOR('',#1023,1000.);
#142=VECTOR('',#1026,1000.);
#143=VECTOR('',#1027,1000.);
#144=VECTOR('',#1028,1000.);
#145=VECTOR('',#1031,1000.);
#146=VECTOR('',#1032,1000.);
#147=VECTOR('',#1041,1000.);
#148=VECTOR('',#1042,1000.);
#149=VECTOR('',#1043,1000.);
#150=VECTOR('',#1044,1000.);
#151=VECTOR('',#1047,1000.);
#152=VECTOR('',#1048,1000.);
#153=VECTOR('',#1049,1000.);
#154=VECTOR('',#1050,1000.);
#155=VECTOR('',#1053,1000.);
#156=VECTOR('',#1054,1000.);
#157=VECTOR('',#1055,1000.);
#158=VECTOR('',#1056,1000.);
#159=VECTOR('',#1059,1000.);
#160=VECTOR('',#1060,1000.);
#161=VECTOR('',#1061,1000.);
#162=VECTOR('',#1062,1000.);
#163=VECTOR('',#1103,1000.);
#164=VECTOR('',#1104,1000.);
#165=VECTOR('',#1105,1000.);
#166=VECTOR('',#1108,1000.);
#167=VECTOR('',#1109,1000.);
#168=VECTOR('',#1110,1000.);
#169=VECTOR('',#1111,1000.);
#170=VECTOR('',#1114,1000.);
#171=VECTOR('',#1115,1000.);
#172=VECTOR('',#1116,1000.);
#173=VECTOR('',#1117,1000.);
#174=VECTOR('',#1118,1000.);
#175=VECTOR('',#1119,1000.);
#176=VECTOR('',#1120,1000.);
#177=VECTOR('',#1121,1000.);
#178=VECTOR('',#1122,1000.);
#179=VECTOR('',#1123,1000.);
#180=VECTOR('',#1124,1000.);
#181=VECTOR('',#1125,1000.);
#182=VECTOR('',#1126,1000.);
#183=VECTOR('',#1133,1000.);
#184=VECTOR('',#1134,1000.);
#185=VECTOR('',#1139,1000.);
#186=VECTOR('',#1144,1000.);
#187=VECTOR('',#1145,1000.);
#188=VECTOR('',#1146,1000.);
#189=VECTOR('',#1147,1000.);
#190=VECTOR('',#1148,1000.);
#191=VECTOR('',#1149,1000.);
#192=VECTOR('',#1150,1000.);
#193=VECTOR('',#1151,1000.);
#194=SHAPE_REPRESENTATION_RELATIONSHIP('','',#925,#201);
#195=SHAPE_REPRESENTATION_RELATIONSHIP('','',#926,#202);
#196=SHAPE_REPRESENTATION_RELATIONSHIP('','',#927,#203);
#197=SHAPE_REPRESENTATION_RELATIONSHIP('','',#928,#204);
#198=SHAPE_REPRESENTATION_RELATIONSHIP('','',#929,#205);
#199=SHAPE_REPRESENTATION_RELATIONSHIP('','',#930,#206);
#200=SHAPE_REPRESENTATION_RELATIONSHIP('','',#931,#207);
#201=ADVANCED_BREP_SHAPE_REPRESENTATION('',(#911),#1735);
#202=ADVANCED_BREP_SHAPE_REPRESENTATION('',(#912),#1736);
#203=ADVANCED_BREP_SHAPE_REPRESENTATION('',(#913),#1737);
#204=ADVANCED_BREP_SHAPE_REPRESENTATION('',(#914),#1738);
#205=ADVANCED_BREP_SHAPE_REPRESENTATION('',(#915),#1739);
#206=ADVANCED_BREP_SHAPE_REPRESENTATION('',(#916),#1740);
#207=ADVANCED_BREP_SHAPE_REPRESENTATION('',(#917),#1741);
#208=PLANE('',#936);
#209=PLANE('',#937);
#210=PLANE('',#942);
#211=PLANE('',#943);
#212=PLANE('',#945);
#213=PLANE('',#946);
#214=PLANE('',#947);
#215=PLANE('',#948);
#216=PLANE('',#949);
#217=PLANE('',#950);
#218=PLANE('',#952);
#219=PLANE('',#953);
#220=PLANE('',#954);
#221=PLANE('',#955);
#222=PLANE('',#956);
#223=PLANE('',#961);
#224=PLANE('',#973);
#225=PLANE('',#974);
#226=PLANE('',#976);
#227=PLANE('',#977);
#228=PLANE('',#978);
#229=PLANE('',#979);
#230=PLANE('',#984);
#231=PLANE('',#985);
#232=PLANE('',#986);
#233=ORIENTED_EDGE('',*,*,#467,.T.);
#234=ORIENTED_EDGE('',*,*,#468,.F.);
#235=ORIENTED_EDGE('',*,*,#467,.F.);
#236=ORIENTED_EDGE('',*,*,#468,.T.);
#237=ORIENTED_EDGE('',*,*,#469,.T.);
#238=ORIENTED_EDGE('',*,*,#470,.F.);
#239=ORIENTED_EDGE('',*,*,#469,.F.);
#240=ORIENTED_EDGE('',*,*,#470,.T.);
#241=ORIENTED_EDGE('',*,*,#471,.F.);
#242=ORIENTED_EDGE('',*,*,#472,.F.);
#243=ORIENTED_EDGE('',*,*,#473,.T.);
#244=ORIENTED_EDGE('',*,*,#474,.T.);
#245=ORIENTED_EDGE('',*,*,#475,.F.);
#246=ORIENTED_EDGE('',*,*,#474,.F.);
#247=ORIENTED_EDGE('',*,*,#476,.T.);
#248=ORIENTED_EDGE('',*,*,#477,.T.);
#249=ORIENTED_EDGE('',*,*,#478,.F.);
#250=ORIENTED_EDGE('',*,*,#477,.F.);
#251=ORIENTED_EDGE('',*,*,#479,.T.);
#252=ORIENTED_EDGE('',*,*,#480,.T.);
#253=ORIENTED_EDGE('',*,*,#481,.F.);
#254=ORIENTED_EDGE('',*,*,#480,.F.);
#255=ORIENTED_EDGE('',*,*,#482,.T.);
#256=ORIENTED_EDGE('',*,*,#472,.T.);
#257=ORIENTED_EDGE('',*,*,#473,.F.);
#258=ORIENTED_EDGE('',*,*,#482,.F.);
#259=ORIENTED_EDGE('',*,*,#479,.F.);
#260=ORIENTED_EDGE('',*,*,#476,.F.);
#261=ORIENTED_EDGE('',*,*,#471,.T.);
#262=ORIENTED_EDGE('',*,*,#475,.T.);
#263=ORIENTED_EDGE('',*,*,#478,.T.);
#264=ORIENTED_EDGE('',*,*,#481,.T.);
#265=ORIENTED_EDGE('',*,*,#483,.F.);
#266=ORIENTED_EDGE('',*,*,#484,.T.);
#267=ORIENTED_EDGE('',*,*,#485,.T.);
#268=ORIENTED_EDGE('',*,*,#486,.T.);
#269=ORIENTED_EDGE('',*,*,#487,.F.);
#270=ORIENTED_EDGE('',*,*,#488,.T.);
#271=ORIENTED_EDGE('',*,*,#489,.T.);
#272=ORIENTED_EDGE('',*,*,#490,.T.);
#273=ORIENTED_EDGE('',*,*,#491,.T.);
#274=ORIENTED_EDGE('',*,*,#492,.T.);
#275=ORIENTED_EDGE('',*,*,#493,.F.);
#276=ORIENTED_EDGE('',*,*,#494,.T.);
#277=ORIENTED_EDGE('',*,*,#495,.F.);
#278=ORIENTED_EDGE('',*,*,#496,.T.);
#279=ORIENTED_EDGE('',*,*,#497,.T.);
#280=ORIENTED_EDGE('',*,*,#498,.T.);
#281=ORIENTED_EDGE('',*,*,#485,.F.);
#282=ORIENTED_EDGE('',*,*,#499,.T.);
#283=ORIENTED_EDGE('',*,*,#487,.T.);
#284=ORIENTED_EDGE('',*,*,#500,.T.);
#285=ORIENTED_EDGE('',*,*,#493,.T.);
#286=ORIENTED_EDGE('',*,*,#501,.T.);
#287=ORIENTED_EDGE('',*,*,#497,.F.);
#288=ORIENTED_EDGE('',*,*,#502,.T.);
#289=ORIENTED_EDGE('',*,*,#489,.F.);
#290=ORIENTED_EDGE('',*,*,#503,.T.);
#291=ORIENTED_EDGE('',*,*,#483,.T.);
#292=ORIENTED_EDGE('',*,*,#504,.T.);
#293=ORIENTED_EDGE('',*,*,#495,.T.);
#294=ORIENTED_EDGE('',*,*,#505,.T.);
#295=ORIENTED_EDGE('',*,*,#491,.F.);
#296=ORIENTED_EDGE('',*,*,#506,.T.);
#297=ORIENTED_EDGE('',*,*,#499,.F.);
#298=ORIENTED_EDGE('',*,*,#484,.F.);
#299=ORIENTED_EDGE('',*,*,#503,.F.);
#300=ORIENTED_EDGE('',*,*,#488,.F.);
#301=ORIENTED_EDGE('',*,*,#502,.F.);
#302=ORIENTED_EDGE('',*,*,#496,.F.);
#303=ORIENTED_EDGE('',*,*,#504,.F.);
#304=ORIENTED_EDGE('',*,*,#486,.F.);
#305=ORIENTED_EDGE('',*,*,#501,.F.);
#306=ORIENTED_EDGE('',*,*,#492,.F.);
#307=ORIENTED_EDGE('',*,*,#505,.F.);
#308=ORIENTED_EDGE('',*,*,#498,.F.);
#309=ORIENTED_EDGE('',*,*,#500,.F.);
#310=ORIENTED_EDGE('',*,*,#490,.F.);
#311=ORIENTED_EDGE('',*,*,#506,.F.);
#312=ORIENTED_EDGE('',*,*,#494,.F.);
#313=ORIENTED_EDGE('',*,*,#507,.F.);
#314=ORIENTED_EDGE('',*,*,#508,.T.);
#315=ORIENTED_EDGE('',*,*,#507,.T.);
#316=ORIENTED_EDGE('',*,*,#508,.F.);
#317=ORIENTED_EDGE('',*,*,#509,.F.);
#318=ORIENTED_EDGE('',*,*,#510,.F.);
#319=ORIENTED_EDGE('',*,*,#511,.T.);
#320=ORIENTED_EDGE('',*,*,#512,.T.);
#321=ORIENTED_EDGE('',*,*,#513,.F.);
#322=ORIENTED_EDGE('',*,*,#514,.F.);
#323=ORIENTED_EDGE('',*,*,#515,.T.);
#324=ORIENTED_EDGE('',*,*,#510,.T.);
#325=ORIENTED_EDGE('',*,*,#516,.F.);
#326=ORIENTED_EDGE('',*,*,#517,.F.);
#327=ORIENTED_EDGE('',*,*,#518,.T.);
#328=ORIENTED_EDGE('',*,*,#514,.T.);
#329=ORIENTED_EDGE('',*,*,#519,.T.);
#330=ORIENTED_EDGE('',*,*,#520,.F.);
#331=ORIENTED_EDGE('',*,*,#521,.F.);
#332=ORIENTED_EDGE('',*,*,#517,.T.);
#333=ORIENTED_EDGE('',*,*,#522,.T.);
#334=ORIENTED_EDGE('',*,*,#523,.F.);
#335=ORIENTED_EDGE('',*,*,#524,.F.);
#336=ORIENTED_EDGE('',*,*,#520,.T.);
#337=ORIENTED_EDGE('',*,*,#525,.F.);
#338=ORIENTED_EDGE('',*,*,#526,.F.);
#339=ORIENTED_EDGE('',*,*,#527,.T.);
#340=ORIENTED_EDGE('',*,*,#523,.T.);
#341=ORIENTED_EDGE('',*,*,#528,.F.);
#342=ORIENTED_EDGE('',*,*,#529,.F.);
#343=ORIENTED_EDGE('',*,*,#530,.T.);
#344=ORIENTED_EDGE('',*,*,#526,.T.);
#345=ORIENTED_EDGE('',*,*,#531,.F.);
#346=ORIENTED_EDGE('',*,*,#532,.F.);
#347=ORIENTED_EDGE('',*,*,#533,.T.);
#348=ORIENTED_EDGE('',*,*,#529,.T.);
#349=ORIENTED_EDGE('',*,*,#534,.T.);
#350=ORIENTED_EDGE('',*,*,#535,.F.);
#351=ORIENTED_EDGE('',*,*,#536,.F.);
#352=ORIENTED_EDGE('',*,*,#532,.T.);
#353=ORIENTED_EDGE('',*,*,#537,.F.);
#354=ORIENTED_EDGE('',*,*,#538,.F.);
#355=ORIENTED_EDGE('',*,*,#539,.T.);
#356=ORIENTED_EDGE('',*,*,#535,.T.);
#357=ORIENTED_EDGE('',*,*,#540,.F.);
#358=ORIENTED_EDGE('',*,*,#541,.F.);
#359=ORIENTED_EDGE('',*,*,#542,.T.);
#360=ORIENTED_EDGE('',*,*,#538,.T.);
#361=ORIENTED_EDGE('',*,*,#543,.F.);
#362=ORIENTED_EDGE('',*,*,#544,.F.);
#363=ORIENTED_EDGE('',*,*,#545,.T.);
#364=ORIENTED_EDGE('',*,*,#541,.T.);
#365=ORIENTED_EDGE('',*,*,#546,.F.);
#366=ORIENTED_EDGE('',*,*,#547,.F.);
#367=ORIENTED_EDGE('',*,*,#548,.T.);
#368=ORIENTED_EDGE('',*,*,#544,.T.);
#369=ORIENTED_EDGE('',*,*,#549,.F.);
#370=ORIENTED_EDGE('',*,*,#550,.F.);
#371=ORIENTED_EDGE('',*,*,#551,.T.);
#372=ORIENTED_EDGE('',*,*,#547,.T.);
#373=ORIENTED_EDGE('',*,*,#552,.F.);
#374=ORIENTED_EDGE('',*,*,#553,.F.);
#375=ORIENTED_EDGE('',*,*,#554,.T.);
#376=ORIENTED_EDGE('',*,*,#550,.T.);
#377=ORIENTED_EDGE('',*,*,#555,.F.);
#378=ORIENTED_EDGE('',*,*,#512,.F.);
#379=ORIENTED_EDGE('',*,*,#556,.T.);
#380=ORIENTED_EDGE('',*,*,#553,.T.);
#381=ORIENTED_EDGE('',*,*,#511,.F.);
#382=ORIENTED_EDGE('',*,*,#515,.F.);
#383=ORIENTED_EDGE('',*,*,#518,.F.);
#384=ORIENTED_EDGE('',*,*,#521,.T.);
#385=ORIENTED_EDGE('',*,*,#524,.T.);
#386=ORIENTED_EDGE('',*,*,#527,.F.);
#387=ORIENTED_EDGE('',*,*,#530,.F.);
#388=ORIENTED_EDGE('',*,*,#533,.F.);
#389=ORIENTED_EDGE('',*,*,#536,.T.);
#390=ORIENTED_EDGE('',*,*,#539,.F.);
#391=ORIENTED_EDGE('',*,*,#542,.F.);
#392=ORIENTED_EDGE('',*,*,#545,.F.);
#393=ORIENTED_EDGE('',*,*,#548,.F.);
#394=ORIENTED_EDGE('',*,*,#551,.F.);
#395=ORIENTED_EDGE('',*,*,#554,.F.);
#396=ORIENTED_EDGE('',*,*,#556,.F.);
#397=ORIENTED_EDGE('',*,*,#509,.T.);
#398=ORIENTED_EDGE('',*,*,#555,.T.);
#399=ORIENTED_EDGE('',*,*,#552,.T.);
#400=ORIENTED_EDGE('',*,*,#549,.T.);
#401=ORIENTED_EDGE('',*,*,#546,.T.);
#402=ORIENTED_EDGE('',*,*,#543,.T.);
#403=ORIENTED_EDGE('',*,*,#540,.T.);
#404=ORIENTED_EDGE('',*,*,#537,.T.);
#405=ORIENTED_EDGE('',*,*,#534,.F.);
#406=ORIENTED_EDGE('',*,*,#531,.T.);
#407=ORIENTED_EDGE('',*,*,#528,.T.);
#408=ORIENTED_EDGE('',*,*,#525,.T.);
#409=ORIENTED_EDGE('',*,*,#522,.F.);
#410=ORIENTED_EDGE('',*,*,#519,.F.);
#411=ORIENTED_EDGE('',*,*,#516,.T.);
#412=ORIENTED_EDGE('',*,*,#513,.T.);
#413=ORIENTED_EDGE('',*,*,#557,.F.);
#414=ORIENTED_EDGE('',*,*,#558,.F.);
#415=ORIENTED_EDGE('',*,*,#559,.T.);
#416=ORIENTED_EDGE('',*,*,#560,.T.);
#417=ORIENTED_EDGE('',*,*,#561,.T.);
#418=ORIENTED_EDGE('',*,*,#562,.F.);
#419=ORIENTED_EDGE('',*,*,#563,.F.);
#420=ORIENTED_EDGE('',*,*,#558,.T.);
#421=ORIENTED_EDGE('',*,*,#564,.T.);
#422=ORIENTED_EDGE('',*,*,#565,.F.);
#423=ORIENTED_EDGE('',*,*,#566,.F.);
#424=ORIENTED_EDGE('',*,*,#562,.T.);
#425=ORIENTED_EDGE('',*,*,#567,.F.);
#426=ORIENTED_EDGE('',*,*,#568,.F.);
#427=ORIENTED_EDGE('',*,*,#569,.T.);
#428=ORIENTED_EDGE('',*,*,#565,.T.);
#429=ORIENTED_EDGE('',*,*,#570,.F.);
#430=ORIENTED_EDGE('',*,*,#571,.F.);
#431=ORIENTED_EDGE('',*,*,#572,.T.);
#432=ORIENTED_EDGE('',*,*,#568,.T.);
#433=ORIENTED_EDGE('',*,*,#573,.F.);
#434=ORIENTED_EDGE('',*,*,#574,.F.);
#435=ORIENTED_EDGE('',*,*,#575,.T.);
#436=ORIENTED_EDGE('',*,*,#571,.T.);
#437=ORIENTED_EDGE('',*,*,#576,.F.);
#438=ORIENTED_EDGE('',*,*,#577,.F.);
#439=ORIENTED_EDGE('',*,*,#578,.T.);
#440=ORIENTED_EDGE('',*,*,#574,.T.);
#441=ORIENTED_EDGE('',*,*,#579,.T.);
#442=ORIENTED_EDGE('',*,*,#580,.F.);
#443=ORIENTED_EDGE('',*,*,#581,.F.);
#444=ORIENTED_EDGE('',*,*,#577,.T.);
#445=ORIENTED_EDGE('',*,*,#582,.F.);
#446=ORIENTED_EDGE('',*,*,#560,.F.);
#447=ORIENTED_EDGE('',*,*,#583,.T.);
#448=ORIENTED_EDGE('',*,*,#580,.T.);
#449=ORIENTED_EDGE('',*,*,#559,.F.);
#450=ORIENTED_EDGE('',*,*,#563,.T.);
#451=ORIENTED_EDGE('',*,*,#566,.T.);
#452=ORIENTED_EDGE('',*,*,#569,.F.);
#453=ORIENTED_EDGE('',*,*,#572,.F.);
#454=ORIENTED_EDGE('',*,*,#575,.F.);
#455=ORIENTED_EDGE('',*,*,#578,.F.);
#456=ORIENTED_EDGE('',*,*,#581,.T.);
#457=ORIENTED_EDGE('',*,*,#583,.F.);
#458=ORIENTED_EDGE('',*,*,#557,.T.);
#459=ORIENTED_EDGE('',*,*,#582,.T.);
#460=ORIENTED_EDGE('',*,*,#579,.F.);
#461=ORIENTED_EDGE('',*,*,#576,.T.);
#462=ORIENTED_EDGE('',*,*,#573,.T.);
#463=ORIENTED_EDGE('',*,*,#570,.T.);
#464=ORIENTED_EDGE('',*,*,#567,.T.);
#465=ORIENTED_EDGE('',*,*,#564,.F.);
#466=ORIENTED_EDGE('',*,*,#561,.F.);
#467=EDGE_CURVE('',#584,#584,#664,.T.);
#468=EDGE_CURVE('',#585,#585,#665,.T.);
#469=EDGE_CURVE('',#586,#586,#666,.T.);
#470=EDGE_CURVE('',#587,#587,#667,.T.);
#471=EDGE_CURVE('',#588,#589,#76,.T.);
#472=EDGE_CURVE('',#590,#588,#77,.T.);
#473=EDGE_CURVE('',#590,#591,#78,.T.);
#474=EDGE_CURVE('',#591,#589,#79,.T.);
#475=EDGE_CURVE('',#589,#592,#80,.T.);
#476=EDGE_CURVE('',#591,#593,#81,.T.);
#477=EDGE_CURVE('',#593,#592,#82,.T.);
#478=EDGE_CURVE('',#592,#594,#83,.T.);
#479=EDGE_CURVE('',#593,#595,#84,.T.);
#480=EDGE_CURVE('',#595,#594,#85,.T.);
#481=EDGE_CURVE('',#594,#588,#86,.T.);
#482=EDGE_CURVE('',#595,#590,#87,.T.);
#483=EDGE_CURVE('',#596,#597,#88,.T.);
#484=EDGE_CURVE('',#596,#598,#89,.F.);
#485=EDGE_CURVE('',#598,#599,#90,.T.);
#486=EDGE_CURVE('',#599,#597,#91,.T.);
#487=EDGE_CURVE('',#600,#601,#92,.T.);
#488=EDGE_CURVE('',#600,#602,#93,.T.);
#489=EDGE_CURVE('',#602,#603,#94,.T.);
#490=EDGE_CURVE('',#603,#601,#95,.F.);
#491=EDGE_CURVE('',#604,#605,#96,.T.);
#492=EDGE_CURVE('',#605,#606,#97,.F.);
#493=EDGE_CURVE('',#607,#606,#98,.T.);
#494=EDGE_CURVE('',#607,#604,#99,.T.);
#495=EDGE_CURVE('',#608,#609,#100,.T.);
#496=EDGE_CURVE('',#608,#610,#101,.F.);
#497=EDGE_CURVE('',#610,#611,#102,.T.);
#498=EDGE_CURVE('',#611,#609,#103,.T.);
#499=EDGE_CURVE('',#598,#600,#668,.T.);
#500=EDGE_CURVE('',#601,#607,#669,.T.);
#501=EDGE_CURVE('',#606,#611,#670,.T.);
#502=EDGE_CURVE('',#610,#599,#671,.T.);
#503=EDGE_CURVE('',#602,#596,#672,.F.);
#504=EDGE_CURVE('',#597,#608,#673,.F.);
#505=EDGE_CURVE('',#609,#605,#674,.F.);
#506=EDGE_CURVE('',#604,#603,#675,.F.);
#507=EDGE_CURVE('',#612,#612,#52,.T.);
#508=EDGE_CURVE('',#613,#613,#53,.T.);
#509=EDGE_CURVE('',#614,#615,#12,.T.);
#510=EDGE_CURVE('',#616,#614,#104,.T.);
#511=EDGE_CURVE('',#616,#617,#13,.T.);
#512=EDGE_CURVE('',#617,#615,#105,.T.);
#513=EDGE_CURVE('',#618,#614,#14,.T.);
#514=EDGE_CURVE('',#619,#618,#106,.T.);
#515=EDGE_CURVE('',#619,#616,#15,.T.);
#516=EDGE_CURVE('',#620,#618,#107,.T.);
#517=EDGE_CURVE('',#621,#620,#108,.T.);
#518=EDGE_CURVE('',#621,#619,#109,.T.);
#519=EDGE_CURVE('',#620,#622,#16,.T.);
#520=EDGE_CURVE('',#623,#622,#110,.T.);
#521=EDGE_CURVE('',#621,#623,#17,.T.);
#522=EDGE_CURVE('',#622,#624,#111,.T.);
#523=EDGE_CURVE('',#625,#624,#112,.T.);
#524=EDGE_CURVE('',#623,#625,#113,.T.);
#525=EDGE_CURVE('',#626,#624,#18,.T.);
#526=EDGE_CURVE('',#627,#626,#114,.T.);
#527=EDGE_CURVE('',#627,#625,#19,.T.);
#528=EDGE_CURVE('',#628,#626,#20,.T.);
#529=EDGE_CURVE('',#629,#628,#115,.T.);
#530=EDGE_CURVE('',#629,#627,#21,.T.);
#531=EDGE_CURVE('',#630,#628,#22,.T.);
#532=EDGE_CURVE('',#631,#630,#116,.T.);
#533=EDGE_CURVE('',#631,#629,#23,.T.);
#534=EDGE_CURVE('',#630,#632,#24,.T.);
#535=EDGE_CURVE('',#633,#632,#117,.T.);
#536=EDGE_CURVE('',#631,#633,#25,.T.);
#537=EDGE_CURVE('',#634,#632,#26,.T.);
#538=EDGE_CURVE('',#635,#634,#118,.T.);
#539=EDGE_CURVE('',#635,#633,#27,.T.);
#540=EDGE_CURVE('',#636,#634,#28,.T.);
#541=EDGE_CURVE('',#637,#636,#119,.T.);
#542=EDGE_CURVE('',#637,#635,#29,.T.);
#543=EDGE_CURVE('',#638,#636,#30,.T.);
#544=EDGE_CURVE('',#639,#638,#120,.T.);
#545=EDGE_CURVE('',#639,#637,#31,.T.);
#546=EDGE_CURVE('',#640,#638,#32,.T.);
#547=EDGE_CURVE('',#641,#640,#121,.T.);
#548=EDGE_CURVE('',#641,#639,#33,.T.);
#549=EDGE_CURVE('',#642,#640,#34,.T.);
#550=EDGE_CURVE('',#643,#642,#122,.T.);
#551=EDGE_CURVE('',#643,#641,#35,.T.);
#552=EDGE_CURVE('',#644,#642,#10,.T.);
#553=EDGE_CURVE('',#645,#644,#123,.T.);
#554=EDGE_CURVE('',#645,#643,#11,.T.);
#555=EDGE_CURVE('',#615,#644,#36,.T.);
#556=EDGE_CURVE('',#617,#645,#37,.T.);
#557=EDGE_CURVE('',#646,#647,#38,.T.);
#558=EDGE_CURVE('',#648,#646,#124,.T.);
#559=EDGE_CURVE('',#648,#649,#39,.T.);
#560=EDGE_CURVE('',#649,#647,#125,.T.);
#561=EDGE_CURVE('',#646,#650,#676,.T.);
#562=EDGE_CURVE('',#651,#650,#126,.T.);
#563=EDGE_CURVE('',#648,#651,#677,.T.);
#564=EDGE_CURVE('',#650,#652,#127,.T.);
#565=EDGE_CURVE('',#653,#652,#128,.T.);
#566=EDGE_CURVE('',#651,#653,#129,.T.);
#567=EDGE_CURVE('',#654,#652,#40,.T.);
#568=EDGE_CURVE('',#655,#654,#130,.T.);
#569=EDGE_CURVE('',#655,#653,#41,.T.);
#570=EDGE_CURVE('',#656,#654,#42,.T.);
#571=EDGE_CURVE('',#657,#656,#131,.T.);
#572=EDGE_CURVE('',#657,#655,#43,.T.);
#573=EDGE_CURVE('',#658,#656,#44,.T.);
#574=EDGE_CURVE('',#659,#658,#132,.T.);
#575=EDGE_CURVE('',#659,#657,#45,.T.);
#576=EDGE_CURVE('',#660,#658,#46,.T.);
#577=EDGE_CURVE('',#661,#660,#133,.T.);
#578=EDGE_CURVE('',#661,#659,#47,.T.);
#579=EDGE_CURVE('',#660,#662,#48,.T.);
#580=EDGE_CURVE('',#663,#662,#134,.T.);
#581=EDGE_CURVE('',#661,#663,#49,.T.);
#582=EDGE_CURVE('',#647,#662,#50,.T.);
#583=EDGE_CURVE('',#649,#663,#51,.T.);
#584=VERTEX_POINT('',#1159);
#585=VERTEX_POINT('',#1161);
#586=VERTEX_POINT('',#1167);
#587=VERTEX_POINT('',#1169);
#588=VERTEX_POINT('',#1175);
#589=VERTEX_POINT('',#1176);
#590=VERTEX_POINT('',#1178);
#591=VERTEX_POINT('',#1180);
#592=VERTEX_POINT('',#1184);
#593=VERTEX_POINT('',#1186);
#594=VERTEX_POINT('',#1190);
#595=VERTEX_POINT('',#1192);
#596=VERTEX_POINT('',#1202);
#597=VERTEX_POINT('',#1203);
#598=VERTEX_POINT('',#1205);
#599=VERTEX_POINT('',#1207);
#600=VERTEX_POINT('',#1211);
#601=VERTEX_POINT('',#1212);
#602=VERTEX_POINT('',#1214);
#603=VERTEX_POINT('',#1216);
#604=VERTEX_POINT('',#1220);
#605=VERTEX_POINT('',#1221);
#606=VERTEX_POINT('',#1223);
#607=VERTEX_POINT('',#1225);
#608=VERTEX_POINT('',#1229);
#609=VERTEX_POINT('',#1230);
#610=VERTEX_POINT('',#1232);
#611=VERTEX_POINT('',#1234);
#612=VERTEX_POINT('',#1290);
#613=VERTEX_POINT('',#1292);
#614=VERTEX_POINT('',#1307);
#615=VERTEX_POINT('',#1308);
#616=VERTEX_POINT('',#1310);
#617=VERTEX_POINT('',#1314);
#618=VERTEX_POINT('',#1327);
#619=VERTEX_POINT('',#1329);
#620=VERTEX_POINT('',#1335);
#621=VERTEX_POINT('',#1337);
#622=VERTEX_POINT('',#1350);
#623=VERTEX_POINT('',#1352);
#624=VERTEX_POINT('',#1358);
#625=VERTEX_POINT('',#1360);
#626=VERTEX_POINT('',#1373);
#627=VERTEX_POINT('',#1375);
#628=VERTEX_POINT('',#1390);
#629=VERTEX_POINT('',#1392);
#630=VERTEX_POINT('',#1407);
#631=VERTEX_POINT('',#1409);
#632=VERTEX_POINT('',#1424);
#633=VERTEX_POINT('',#1426);
#634=VERTEX_POINT('',#1441);
#635=VERTEX_POINT('',#1443);
#636=VERTEX_POINT('',#1458);
#637=VERTEX_POINT('',#1460);
#638=VERTEX_POINT('',#1475);
#639=VERTEX_POINT('',#1477);
#640=VERTEX_POINT('',#1492);
#641=VERTEX_POINT('',#1494);
#642=VERTEX_POINT('',#1509);
#643=VERTEX_POINT('',#1511);
#644=VERTEX_POINT('',#1572);
#645=VERTEX_POINT('',#1574);
#646=VERTEX_POINT('',#1606);
#647=VERTEX_POINT('',#1607);
#648=VERTEX_POINT('',#1609);
#649=VERTEX_POINT('',#1613);
#650=VERTEX_POINT('',#1617);
#651=VERTEX_POINT('',#1619);
#652=VERTEX_POINT('',#1623);
#653=VERTEX_POINT('',#1625);
#654=VERTEX_POINT('',#1638);
#655=VERTEX_POINT('',#1640);
#656=VERTEX_POINT('',#1655);
#657=VERTEX_POINT('',#1657);
#658=VERTEX_POINT('',#1672);
#659=VERTEX_POINT('',#1674);
#660=VERTEX_POINT('',#1689);
#661=VERTEX_POINT('',#1691);
#662=VERTEX_POINT('',#1706);
#663=VERTEX_POINT('',#1708);
#664=CIRCLE('',#934,3.02956517909682);
#665=CIRCLE('',#935,3.02956517909682);
#666=CIRCLE('',#940,3.0559236084608);
#667=CIRCLE('',#941,3.0559236084608);
#668=CIRCLE('',#957,12.0710678118655);
#669=CIRCLE('',#958,12.0710678118655);
#670=CIRCLE('',#959,12.0710678118655);
#671=CIRCLE('',#960,12.0710678118655);
#672=CIRCLE('',#962,12.0710678118655);
#673=CIRCLE('',#963,12.0710678118655);
#674=CIRCLE('',#964,12.0710678118655);
#675=CIRCLE('',#965,12.0710678118655);
#676=CIRCLE('',#982,422.434052773662);
#677=CIRCLE('',#983,422.434052773662);
#678=EDGE_LOOP('',(#233));
#679=EDGE_LOOP('',(#234));
#680=EDGE_LOOP('',(#235));
#681=EDGE_LOOP('',(#236));
#682=EDGE_LOOP('',(#237));
#683=EDGE_LOOP('',(#238));
#684=EDGE_LOOP('',(#239));
#685=EDGE_LOOP('',(#240));
#686=EDGE_LOOP('',(#241,#242,#243,#244));
#687=EDGE_LOOP('',(#245,#246,#247,#248));
#688=EDGE_LOOP('',(#249,#250,#251,#252));
#689=EDGE_LOOP('',(#253,#254,#255,#256));
#690=EDGE_LOOP('',(#257,#258,#259,#260));
#691=EDGE_LOOP('',(#261,#262,#263,#264));
#692=EDGE_LOOP('',(#265,#266,#267,#268));
#693=EDGE_LOOP('',(#269,#270,#271,#272));
#694=EDGE_LOOP('',(#273,#274,#275,#276));
#695=EDGE_LOOP('',(#277,#278,#279,#280));
#696=EDGE_LOOP('',(#281,#282,#283,#284,#285,#286,#287,#288));
#697=EDGE_LOOP('',(#289,#290,#291,#292,#293,#294,#295,#296));
#698=EDGE_LOOP('',(#297,#298,#299,#300));
#699=EDGE_LOOP('',(#301,#302,#303,#304));
#700=EDGE_LOOP('',(#305,#306,#307,#308));
#701=EDGE_LOOP('',(#309,#310,#311,#312));
#702=EDGE_LOOP('',(#313));
#703=EDGE_LOOP('',(#314));
#704=EDGE_LOOP('',(#315));
#705=EDGE_LOOP('',(#316));
#706=EDGE_LOOP('',(#317,#318,#319,#320));
#707=EDGE_LOOP('',(#321,#322,#323,#324));
#708=EDGE_LOOP('',(#325,#326,#327,#328));
#709=EDGE_LOOP('',(#329,#330,#331,#332));
#710=EDGE_LOOP('',(#333,#334,#335,#336));
#711=EDGE_LOOP('',(#337,#338,#339,#340));
#712=EDGE_LOOP('',(#341,#342,#343,#344));
#713=EDGE_LOOP('',(#345,#346,#347,#348));
#714=EDGE_LOOP('',(#349,#350,#351,#352));
#715=EDGE_LOOP('',(#353,#354,#355,#356));
#716=EDGE_LOOP('',(#357,#358,#359,#360));
#717=EDGE_LOOP('',(#361,#362,#363,#364));
#718=EDGE_LOOP('',(#365,#366,#367,#368));
#719=EDGE_LOOP('',(#369,#370,#371,#372));
#720=EDGE_LOOP('',(#373,#374,#375,#376));
#721=EDGE_LOOP('',(#377,#378,#379,#380));
#722=EDGE_LOOP('',(#381,#382,#383,#384,#385,#386,#387,#388,#389,#390,#391,
#392,#393,#394,#395,#396));
#723=EDGE_LOOP('',(#397,#398,#399,#400,#401,#402,#403,#404,#405,#406,#407,
#408,#409,#410,#411,#412));
#724=EDGE_LOOP('',(#413,#414,#415,#416));
#725=EDGE_LOOP('',(#417,#418,#419,#420));
#726=EDGE_LOOP('',(#421,#422,#423,#424));
#727=EDGE_LOOP('',(#425,#426,#427,#428));
#728=EDGE_LOOP('',(#429,#430,#431,#432));
#729=EDGE_LOOP('',(#433,#434,#435,#436));
#730=EDGE_LOOP('',(#437,#438,#439,#440));
#731=EDGE_LOOP('',(#441,#442,#443,#444));
#732=EDGE_LOOP('',(#445,#446,#447,#448));
#733=EDGE_LOOP('',(#449,#450,#451,#452,#453,#454,#455,#456,#457));
#734=EDGE_LOOP('',(#458,#459,#460,#461,#462,#463,#464,#465,#466));
#735=FACE_BOUND('',#678,.T.);
#736=FACE_BOUND('',#679,.T.);
#737=FACE_BOUND('',#680,.T.);
#738=FACE_BOUND('',#681,.T.);
#739=FACE_BOUND('',#682,.T.);
#740=FACE_BOUND('',#683,.T.);
#741=FACE_BOUND('',#684,.T.);
#742=FACE_BOUND('',#685,.T.);
#743=FACE_BOUND('',#686,.T.);
#744=FACE_BOUND('',#687,.T.);
#745=FACE_BOUND('',#688,.T.);
#746=FACE_BOUND('',#689,.T.);
#747=FACE_BOUND('',#690,.T.);
#748=FACE_BOUND('',#691,.T.);
#749=FACE_BOUND('',#692,.T.);
#750=FACE_BOUND('',#693,.T.);
#751=FACE_BOUND('',#694,.T.);
#752=FACE_BOUND('',#695,.T.);
#753=FACE_BOUND('',#696,.T.);
#754=FACE_BOUND('',#697,.T.);
#755=FACE_BOUND('',#698,.T.);
#756=FACE_BOUND('',#699,.T.);
#757=FACE_BOUND('',#700,.T.);
#758=FACE_BOUND('',#701,.T.);
#759=FACE_BOUND('',#702,.T.);
#760=FACE_BOUND('',#703,.T.);
#761=FACE_BOUND('',#704,.T.);
#762=FACE_BOUND('',#705,.T.);
#763=FACE_BOUND('',#706,.T.);
#764=FACE_BOUND('',#707,.T.);
#765=FACE_BOUND('',#708,.T.);
#766=FACE_BOUND('',#709,.T.);
#767=FACE_BOUND('',#710,.T.);
#768=FACE_BOUND('',#711,.T.);
#769=FACE_BOUND('',#712,.T.);
#770=FACE_BOUND('',#713,.T.);
#771=FACE_BOUND('',#714,.T.);
#772=FACE_BOUND('',#715,.T.);
#773=FACE_BOUND('',#716,.T.);
#774=FACE_BOUND('',#717,.T.);
#775=FACE_BOUND('',#718,.T.);
#776=FACE_BOUND('',#719,.T.);
#777=FACE_BOUND('',#720,.T.);
#778=FACE_BOUND('',#721,.T.);
#779=FACE_BOUND('',#722,.T.);
#780=FACE_BOUND('',#723,.T.);
#781=FACE_BOUND('',#724,.T.);
#782=FACE_BOUND('',#725,.T.);
#783=FACE_BOUND('',#726,.T.);
#784=FACE_BOUND('',#727,.T.);
#785=FACE_BOUND('',#728,.T.);
#786=FACE_BOUND('',#729,.T.);
#787=FACE_BOUND('',#730,.T.);
#788=FACE_BOUND('',#731,.T.);
#789=FACE_BOUND('',#732,.T.);
#790=FACE_BOUND('',#733,.T.);
#791=FACE_BOUND('',#734,.T.);
#792=CYLINDRICAL_SURFACE('',#933,3.02956517909682);
#793=CYLINDRICAL_SURFACE('',#939,3.0559236084608);
#794=CYLINDRICAL_SURFACE('',#966,12.0710678118655);
#795=CYLINDRICAL_SURFACE('',#967,12.0710678118655);
#796=CYLINDRICAL_SURFACE('',#968,12.0710678118655);
#797=CYLINDRICAL_SURFACE('',#969,12.0710678118655);
#798=CYLINDRICAL_SURFACE('',#981,422.434052773662);
#799=ADVANCED_FACE('',(#735,#736),#792,.T.);
#800=ADVANCED_FACE('',(#737),#208,.F.);
#801=ADVANCED_FACE('',(#738),#209,.T.);
#802=ADVANCED_FACE('',(#739,#740),#793,.T.);
#803=ADVANCED_FACE('',(#741),#210,.F.);
#804=ADVANCED_FACE('',(#742),#211,.T.);
#805=ADVANCED_FACE('',(#743),#212,.T.);
#806=ADVANCED_FACE('',(#744),#213,.T.);
#807=ADVANCED_FACE('',(#745),#214,.T.);
#808=ADVANCED_FACE('',(#746),#215,.T.);
#809=ADVANCED_FACE('',(#747),#216,.F.);
#810=ADVANCED_FACE('',(#748),#217,.T.);
#811=ADVANCED_FACE('',(#749),#218,.T.);
#812=ADVANCED_FACE('',(#750),#219,.F.);
#813=ADVANCED_FACE('',(#751),#220,.F.);
#814=ADVANCED_FACE('',(#752),#221,.T.);
#815=ADVANCED_FACE('',(#753),#222,.T.);
#816=ADVANCED_FACE('',(#754),#223,.F.);
#817=ADVANCED_FACE('',(#755),#794,.T.);
#818=ADVANCED_FACE('',(#756),#795,.T.);
#819=ADVANCED_FACE('',(#757),#796,.T.);
#820=ADVANCED_FACE('',(#758),#797,.T.);
#821=ADVANCED_FACE('',(#759,#760),#54,.F.);
#822=ADVANCED_FACE('',(#761),#224,.T.);
#823=ADVANCED_FACE('',(#762),#225,.F.);
#824=ADVANCED_FACE('',(#763),#55,.T.);
#825=ADVANCED_FACE('',(#764),#56,.T.);
#826=ADVANCED_FACE('',(#765),#226,.T.);
#827=ADVANCED_FACE('',(#766),#57,.F.);
#828=ADVANCED_FACE('',(#767),#227,.F.);
#829=ADVANCED_FACE('',(#768),#58,.T.);
#830=ADVANCED_FACE('',(#769),#59,.T.);
#831=ADVANCED_FACE('',(#770),#60,.T.);
#832=ADVANCED_FACE('',(#771),#61,.F.);
#833=ADVANCED_FACE('',(#772),#62,.T.);
#834=ADVANCED_FACE('',(#773),#63,.T.);
#835=ADVANCED_FACE('',(#774),#64,.T.);
#836=ADVANCED_FACE('',(#775),#65,.T.);
#837=ADVANCED_FACE('',(#776),#66,.T.);
#838=ADVANCED_FACE('',(#777),#67,.T.);
#839=ADVANCED_FACE('',(#778),#68,.T.);
#840=ADVANCED_FACE('',(#779),#228,.T.);
#841=ADVANCED_FACE('',(#780),#229,.F.);
#842=ADVANCED_FACE('',(#781),#69,.T.);
#843=ADVANCED_FACE('',(#782),#798,.T.);
#844=ADVANCED_FACE('',(#783),#230,.F.);
#845=ADVANCED_FACE('',(#784),#70,.T.);
#846=ADVANCED_FACE('',(#785),#71,.T.);
#847=ADVANCED_FACE('',(#786),#72,.T.);
#848=ADVANCED_FACE('',(#787),#73,.T.);
#849=ADVANCED_FACE('',(#788),#74,.F.);
#850=ADVANCED_FACE('',(#789),#75,.T.);
#851=ADVANCED_FACE('',(#790),#231,.T.);
#852=ADVANCED_FACE('',(#791),#232,.F.);
#853=CLOSED_SHELL('',(#799,#800,#801));
#854=CLOSED_SHELL('',(#802,#803,#804));
#855=CLOSED_SHELL('',(#805,#806,#807,#808,#809,#810));
#856=CLOSED_SHELL('',(#811,#812,#813,#814,#815,#816,#817,#818,#819,#820));
#857=CLOSED_SHELL('',(#821,#822,#823));
#858=CLOSED_SHELL('',(#824,#825,#826,#827,#828,#829,#830,#831,#832,#833,
#834,#835,#836,#837,#838,#839,#840,#841));
#859=CLOSED_SHELL('',(#842,#843,#844,#845,#846,#847,#848,#849,#850,#851,
#852));
#860=STYLED_ITEM('',(#867),#911);
#861=STYLED_ITEM('',(#868),#912);
#862=STYLED_ITEM('',(#869),#913);
#863=STYLED_ITEM('',(#870),#914);
#864=STYLED_ITEM('',(#871),#915);
#865=STYLED_ITEM('',(#872),#916);
#866=STYLED_ITEM('',(#873),#917);
#867=PRESENTATION_STYLE_ASSIGNMENT((#874));
#868=PRESENTATION_STYLE_ASSIGNMENT((#875));
#869=PRESENTATION_STYLE_ASSIGNMENT((#876));
#870=PRESENTATION_STYLE_ASSIGNMENT((#877));
#871=PRESENTATION_STYLE_ASSIGNMENT((#878));
#872=PRESENTATION_STYLE_ASSIGNMENT((#879));
#873=PRESENTATION_STYLE_ASSIGNMENT((#880));
#874=SURFACE_STYLE_USAGE(.BOTH.,#881);
#875=SURFACE_STYLE_USAGE(.BOTH.,#882);
#876=SURFACE_STYLE_USAGE(.BOTH.,#883);
#877=SURFACE_STYLE_USAGE(.BOTH.,#884);
#878=SURFACE_STYLE_USAGE(.BOTH.,#885);
#879=SURFACE_STYLE_USAGE(.BOTH.,#886);
#880=SURFACE_STYLE_USAGE(.BOTH.,#887);
#881=SURFACE_SIDE_STYLE('',(#888));
#882=SURFACE_SIDE_STYLE('',(#889));
#883=SURFACE_SIDE_STYLE('',(#890));
#884=SURFACE_SIDE_STYLE('',(#891));
#885=SURFACE_SIDE_STYLE('',(#892));
#886=SURFACE_SIDE_STYLE('',(#893));
#887=SURFACE_SIDE_STYLE('',(#894));
#888=SURFACE_STYLE_FILL_AREA(#895);
#889=SURFACE_STYLE_FILL_AREA(#896);
#890=SURFACE_STYLE_FILL_AREA(#897);
#891=SURFACE_STYLE_FILL_AREA(#898);
#892=SURFACE_STYLE_FILL_AREA(#899);
#893=SURFACE_STYLE_FILL_AREA(#900);
#894=SURFACE_STYLE_FILL_AREA(#901);
#895=FILL_AREA_STYLE('',(#902));
#896=FILL_AREA_STYLE('',(#903));
#897=FILL_AREA_STYLE('',(#904));
#898=FILL_AREA_STYLE('',(#905));
#899=FILL_AREA_STYLE('',(#906));
#900=FILL_AREA_STYLE('',(#907));
#901=FILL_AREA_STYLE('',(#908));
#902=FILL_AREA_STYLE_COLOUR('',#909);
#903=FILL_AREA_STYLE_COLOUR('',#909);
#904=FILL_AREA_STYLE_COLOUR('',#909);
#905=FILL_AREA_STYLE_COLOUR('',#910);
#906=FILL_AREA_STYLE_COLOUR('',#910);
#907=FILL_AREA_STYLE_COLOUR('',#909);
#908=FILL_AREA_STYLE_COLOUR('',#909);
#909=DRAUGHTING_PRE_DEFINED_COLOUR('white');
#910=DRAUGHTING_PRE_DEFINED_COLOUR('red');
#911=MANIFOLD_SOLID_BREP('Part 23',#853);
#912=MANIFOLD_SOLID_BREP('Part 24',#854);
#913=MANIFOLD_SOLID_BREP('Part 25',#855);
#914=MANIFOLD_SOLID_BREP('Part 26',#856);
#915=MANIFOLD_SOLID_BREP('Part 22',#857);
#916=MANIFOLD_SOLID_BREP('Part 21',#858);
#917=MANIFOLD_SOLID_BREP('Part 20',#859);
#918=SHAPE_DEFINITION_REPRESENTATION(#1770,#925);
#919=SHAPE_DEFINITION_REPRESENTATION(#1771,#926);
#920=SHAPE_DEFINITION_REPRESENTATION(#1772,#927);
#921=SHAPE_DEFINITION_REPRESENTATION(#1773,#928);
#922=SHAPE_DEFINITION_REPRESENTATION(#1774,#929);
#923=SHAPE_DEFINITION_REPRESENTATION(#1775,#930);
#924=SHAPE_DEFINITION_REPRESENTATION(#1776,#931);
#925=SHAPE_REPRESENTATION('Part 23',(#932),#1735);
#926=SHAPE_REPRESENTATION('Part 24',(#938),#1736);
#927=SHAPE_REPRESENTATION('Part 25',(#944),#1737);
#928=SHAPE_REPRESENTATION('Part 26',(#951),#1738);
#929=SHAPE_REPRESENTATION('Part 22',(#970),#1739);
#930=SHAPE_REPRESENTATION('Part 21',(#975),#1740);
#931=SHAPE_REPRESENTATION('Part 20',(#980),#1741);
#932=AXIS2_PLACEMENT_3D('',#1156,#987,#988);
#933=AXIS2_PLACEMENT_3D('',#1157,#989,#990);
#934=AXIS2_PLACEMENT_3D('',#1158,#991,#992);
#935=AXIS2_PLACEMENT_3D('',#1160,#993,#994);
#936=AXIS2_PLACEMENT_3D('',#1162,#995,#996);
#937=AXIS2_PLACEMENT_3D('',#1163,#997,#998);
#938=AXIS2_PLACEMENT_3D('',#1164,#999,#1000);
#939=AXIS2_PLACEMENT_3D('',#1165,#1001,#1002);
#940=AXIS2_PLACEMENT_3D('',#1166,#1003,#1004);
#941=AXIS2_PLACEMENT_3D('',#1168,#1005,#1006);
#942=AXIS2_PLACEMENT_3D('',#1170,#1007,#1008);
#943=AXIS2_PLACEMENT_3D('',#1171,#1009,#1010);
#944=AXIS2_PLACEMENT_3D('',#1172,#1011,#1012);
#945=AXIS2_PLACEMENT_3D('',#1173,#1013,#1014);
#946=AXIS2_PLACEMENT_3D('',#1182,#1019,#1020);
#947=AXIS2_PLACEMENT_3D('',#1188,#1024,#1025);
#948=AXIS2_PLACEMENT_3D('',#1194,#1029,#1030);
#949=AXIS2_PLACEMENT_3D('',#1197,#1033,#1034);
#950=AXIS2_PLACEMENT_3D('',#1198,#1035,#1036);
#951=AXIS2_PLACEMENT_3D('',#1199,#1037,#1038);
#952=AXIS2_PLACEMENT_3D('',#1200,#1039,#1040);
#953=AXIS2_PLACEMENT_3D('',#1209,#1045,#1046);
#954=AXIS2_PLACEMENT_3D('',#1218,#1051,#1052);
#955=AXIS2_PLACEMENT_3D('',#1227,#1057,#1058);
#956=AXIS2_PLACEMENT_3D('',#1236,#1063,#1064);
#957=AXIS2_PLACEMENT_3D('',#1237,#1065,#1066);
#958=AXIS2_PLACEMENT_3D('',#1238,#1067,#1068);
#959=AXIS2_PLACEMENT_3D('',#1239,#1069,#1070);
#960=AXIS2_PLACEMENT_3D('',#1240,#1071,#1072);
#961=AXIS2_PLACEMENT_3D('',#1241,#1073,#1074);
#962=AXIS2_PLACEMENT_3D('',#1242,#1075,#1076);
#963=AXIS2_PLACEMENT_3D('',#1243,#1077,#1078);
#964=AXIS2_PLACEMENT_3D('',#1244,#1079,#1080);
#965=AXIS2_PLACEMENT_3D('',#1245,#1081,#1082);
#966=AXIS2_PLACEMENT_3D('',#1246,#1083,#1084);
#967=AXIS2_PLACEMENT_3D('',#1247,#1085,#1086);
#968=AXIS2_PLACEMENT_3D('',#1248,#1087,#1088);
#969=AXIS2_PLACEMENT_3D('',#1249,#1089,#1090);
#970=AXIS2_PLACEMENT_3D('',#1250,#1091,#1092);
#971=AXIS2_PLACEMENT_3D('',#1289,#1093,#1094);
#972=AXIS2_PLACEMENT_3D('',#1291,#1095,#1096);
#973=AXIS2_PLACEMENT_3D('',#1293,#1097,#1098);
#974=AXIS2_PLACEMENT_3D('',#1294,#1099,#1100);
#975=AXIS2_PLACEMENT_3D('',#1295,#1101,#1102);
#976=AXIS2_PLACEMENT_3D('',#1333,#1106,#1107);
#977=AXIS2_PLACEMENT_3D('',#1356,#1112,#1113);
#978=AXIS2_PLACEMENT_3D('',#1592,#1127,#1128);
#979=AXIS2_PLACEMENT_3D('',#1593,#1129,#1130);
#980=AXIS2_PLACEMENT_3D('',#1594,#1131,#1132);
#981=AXIS2_PLACEMENT_3D('',#1615,#1135,#1136);
#982=AXIS2_PLACEMENT_3D('',#1616,#1137,#1138);
#983=AXIS2_PLACEMENT_3D('',#1620,#1140,#1141);
#984=AXIS2_PLACEMENT_3D('',#1621,#1142,#1143);
#985=AXIS2_PLACEMENT_3D('',#1726,#1152,#1153);
#986=AXIS2_PLACEMENT_3D('',#1727,#1154,#1155);
#987=DIRECTION('',(0.,0.,1.));
#988=DIRECTION('',(1.,0.,0.));
#989=DIRECTION('',(0.,0.,1.));
#990=DIRECTION('',(0.,-1.,0.));
#991=DIRECTION('',(0.,0.,1.));
#992=DIRECTION('',(0.,-1.,0.));
#993=DIRECTION('',(0.,0.,1.));
#994=DIRECTION('',(0.,-1.,0.));
#995=DIRECTION('',(0.,0.,1.));
#996=DIRECTION('',(1.,0.,0.));
#997=DIRECTION('',(0.,0.,1.));
#998=DIRECTION('',(1.,0.,0.));
#999=DIRECTION('',(0.,0.,1.));
#1000=DIRECTION('',(1.,0.,0.));
#1001=DIRECTION('',(0.,0.,1.));
#1002=DIRECTION('',(0.,-1.,0.));
#1003=DIRECTION('',(0.,0.,1.));
#1004=DIRECTION('',(0.,-1.,0.));
#1005=DIRECTION('',(0.,0.,1.));
#1006=DIRECTION('',(0.,-1.,0.));
#1007=DIRECTION('',(0.,0.,1.));
#1008=DIRECTION('',(1.,0.,0.));
#1009=DIRECTION('',(0.,0.,1.));
#1010=DIRECTION('',(1.,0.,0.));
#1011=DIRECTION('',(0.,0.,1.));
#1012=DIRECTION('',(1.,0.,0.));
#1013=DIRECTION('',(-0.745937642912349,0.666015790268046,0.));
#1014=DIRECTION('',(0.666015790268046,0.745937642912349,0.));
#1015=DIRECTION('',(-0.666015790268046,-0.745937642912349,0.));
#1016=DIRECTION('',(0.,0.,1.));
#1017=DIRECTION('',(-0.666015790268046,-0.745937642912349,0.));
#1018=DIRECTION('',(0.,0.,1.));
#1019=DIRECTION('',(-0.52549316046001,-0.850797824579818,0.));
#1020=DIRECTION('',(-0.850797824579818,0.52549316046001,0.));
#1021=DIRECTION('',(0.850797824579818,-0.52549316046001,0.));
#1022=DIRECTION('',(0.850797824579818,-0.52549316046001,0.));
#1023=DIRECTION('',(0.,0.,1.));
#1024=DIRECTION('',(0.676509376382401,-0.736434018542527,0.));
#1025=DIRECTION('',(-0.736434018542527,-0.676509376382401,0.));
#1026=DIRECTION('',(0.736434018542527,0.676509376382401,0.));
#1027=DIRECTION('',(0.736434018542527,0.676509376382401,0.));
#1028=DIRECTION('',(0.,0.,1.));
#1029=DIRECTION('',(0.179555683232189,0.983747811493892,0.));
#1030=DIRECTION('',(0.983747811493892,-0.179555683232189,0.));
#1031=DIRECTION('',(-0.983747811493892,0.179555683232189,0.));
#1032=DIRECTION('',(-0.983747811493892,0.179555683232189,0.));
#1033=DIRECTION('',(0.,0.,1.));
#1034=DIRECTION('',(1.,0.,0.));
#1035=DIRECTION('',(0.,0.,1.));
#1036=DIRECTION('',(1.,0.,0.));
#1037=DIRECTION('',(0.,0.,1.));
#1038=DIRECTION('',(1.,0.,0.));
#1039=DIRECTION('',(1.,0.,0.));
#1040=DIRECTION('',(0.,-1.,0.));
#1041=DIRECTION('',(0.,-1.,0.));
#1042=DIRECTION('',(0.,0.,-1.));
#1043=DIRECTION('',(0.,-1.,0.));
#1044=DIRECTION('',(0.,0.,-1.));
#1045=DIRECTION('',(0.,-1.,0.));
#1046=DIRECTION('',(-1.,0.,0.));
#1047=DIRECTION('',(-1.,0.,0.));
#1048=DIRECTION('',(0.,0.,-1.));
#1049=DIRECTION('',(-1.,0.,0.));
#1050=DIRECTION('',(0.,0.,-1.));
#1051=DIRECTION('',(1.,0.,0.));
#1052=DIRECTION('',(0.,-1.,0.));
#1053=DIRECTION('',(0.,-1.,0.));
#1054=DIRECTION('',(0.,0.,-1.));
#1055=DIRECTION('',(0.,-1.,0.));
#1056=DIRECTION('',(0.,0.,-1.));
#1057=DIRECTION('',(0.,-1.,0.));
#1058=DIRECTION('',(-1.,0.,0.));
#1059=DIRECTION('',(-1.,0.,0.));
#1060=DIRECTION('',(0.,0.,-1.));
#1061=DIRECTION('',(-1.,0.,0.));
#1062=DIRECTION('',(0.,0.,-1.));
#1063=DIRECTION('',(0.,0.,1.));
#1064=DIRECTION('',(1.,0.,0.));
#1065=DIRECTION('',(0.,0.,1.));
#1066=DIRECTION('',(0.,-1.,0.));
#1067=DIRECTION('',(0.,0.,1.));
#1068=DIRECTION('',(0.,-1.,0.));
#1069=DIRECTION('',(0.,0.,1.));
#1070=DIRECTION('',(0.,-1.,0.));
#1071=DIRECTION('',(0.,0.,1.));
#1072=DIRECTION('',(0.,-1.,0.));
#1073=DIRECTION('',(0.,0.,1.));
#1074=DIRECTION('',(1.,0.,0.));
#1075=DIRECTION('',(0.,0.,1.));
#1076=DIRECTION('',(0.,-1.,0.));
#1077=DIRECTION('',(0.,0.,1.));
#1078=DIRECTION('',(0.,-1.,0.));
#1079=DIRECTION('',(0.,0.,1.));
#1080=DIRECTION('',(0.,-1.,0.));
#1081=DIRECTION('',(0.,0.,1.));
#1082=DIRECTION('',(0.,-1.,0.));
#1083=DIRECTION('',(0.,0.,1.));
#1084=DIRECTION('',(0.,-1.,0.));
#1085=DIRECTION('',(0.,0.,-1.));
#1086=DIRECTION('',(0.,1.,0.));
#1087=DIRECTION('',(0.,0.,1.));
#1088=DIRECTION('',(0.,-1.,0.));
#1089=DIRECTION('',(0.,0.,-1.));
#1090=DIRECTION('',(0.,1.,0.));
#1091=DIRECTION('',(0.,0.,1.));
#1092=DIRECTION('',(1.,0.,0.));
#1093=DIRECTION('',(0.,0.,1.));
#1094=DIRECTION('',(1.,0.,0.));
#1095=DIRECTION('',(0.,0.,1.));
#1096=DIRECTION('',(1.,0.,0.));
#1097=DIRECTION('',(0.,0.,1.));
#1098=DIRECTION('',(1.,0.,0.));
#1099=DIRECTION('',(0.,0.,1.));
#1100=DIRECTION('',(1.,0.,0.));
#1101=DIRECTION('',(0.,0.,1.));
#1102=DIRECTION('',(1.,0.,0.));
#1103=DIRECTION('',(0.,0.,-1.));
#1104=DIRECTION('',(0.,0.,-1.));
#1105=DIRECTION('',(0.,0.,-1.));
#1106=DIRECTION('',(0.,-1.,0.));
#1107=DIRECTION('',(-1.,0.,0.));
#1108=DIRECTION('',(-1.,0.,0.));
#1109=DIRECTION('',(0.,0.,-1.));
#1110=DIRECTION('',(-1.,0.,0.));
#1111=DIRECTION('',(0.,0.,-1.));
#1112=DIRECTION('',(-0.48368621792173,0.87524147673232,0.));
#1113=DIRECTION('',(0.87524147673232,0.48368621792173,0.));
#1114=DIRECTION('',(0.875241476732321,0.48368621792173,0.));
#1115=DIRECTION('',(0.,0.,-1.));
#1116=DIRECTION('',(0.875241476732321,0.48368621792173,0.));
#1117=DIRECTION('',(0.,0.,-1.));
#1118=DIRECTION('',(0.,0.,-1.));
#1119=DIRECTION('',(0.,0.,-1.));
#1120=DIRECTION('',(0.,0.,-1.));
#1121=DIRECTION('',(0.,0.,-1.));
#1122=DIRECTION('',(0.,0.,-1.));
#1123=DIRECTION('',(0.,0.,-1.));
#1124=DIRECTION('',(0.,0.,-1.));
#1125=DIRECTION('',(0.,0.,-1.));
#1126=DIRECTION('',(0.,0.,-1.));
#1127=DIRECTION('',(0.,0.,1.));
#1128=DIRECTION('',(1.,0.,0.));
#1129=DIRECTION('',(0.,0.,1.));
#1130=DIRECTION('',(1.,0.,0.));
#1131=DIRECTION('',(0.,0.,1.));
#1132=DIRECTION('',(1.,0.,0.));
#1133=DIRECTION('',(0.,0.,-1.));
#1134=DIRECTION('',(0.,0.,-1.));
#1135=DIRECTION('',(0.,0.,-1.));
#1136=DIRECTION('',(0.,1.,0.));
#1137=DIRECTION('',(0.,0.,1.));
#1138=DIRECTION('',(0.,-1.,0.));
#1139=DIRECTION('',(0.,0.,-1.));
#1140=DIRECTION('',(0.,0.,1.));
#1141=DIRECTION('',(0.,-1.,0.));
#1142=DIRECTION('',(0.,1.,0.));
#1143=DIRECTION('',(1.,0.,0.));
#1144=DIRECTION('',(1.,0.,0.));
#1145=DIRECTION('',(0.,0.,-1.));
#1146=DIRECTION('',(1.,0.,0.));
#1147=DIRECTION('',(0.,0.,-1.));
#1148=DIRECTION('',(0.,0.,-1.));
#1149=DIRECTION('',(0.,0.,-1.));
#1150=DIRECTION('',(0.,0.,-1.));
#1151=DIRECTION('',(0.,0.,-1.));
#1152=DIRECTION('',(0.,0.,1.));
#1153=DIRECTION('',(1.,0.,0.));
#1154=DIRECTION('',(0.,0.,1.));
#1155=DIRECTION('',(1.,0.,0.));
#1156=CARTESIAN_POINT('',(0.,0.,0.));
#1157=CARTESIAN_POINT('',(63.6852793395519,14.7256273776293,3.3));
#1158=CARTESIAN_POINT('',(63.6852793395519,14.7256273776293,3.3));
#1159=CARTESIAN_POINT('',(63.6852793395519,11.6960621985325,3.3));
#1160=CARTESIAN_POINT('',(63.6852793395519,14.7256273776293,26.5));
#1161=CARTESIAN_POINT('',(63.6852793395519,11.6960621985325,26.5));
#1162=CARTESIAN_POINT('',(105.810994204755,12.8467787289992,3.3));
#1163=CARTESIAN_POINT('',(105.810994204755,12.8467787289992,26.5));
#1164=CARTESIAN_POINT('',(0.,0.,0.));
#1165=CARTESIAN_POINT('',(139.845475554466,14.7256273776293,3.3));
#1166=CARTESIAN_POINT('',(139.845475554466,14.7256273776293,3.3));
#1167=CARTESIAN_POINT('',(139.845475554466,11.6697037691685,3.3));
#1168=CARTESIAN_POINT('',(139.845475554466,14.7256273776293,26.5));
#1169=CARTESIAN_POINT('',(139.845475554466,11.6697037691685,26.5));
#1170=CARTESIAN_POINT('',(105.810994204755,12.8467787289992,3.3));
#1171=CARTESIAN_POINT('',(105.810994204755,12.8467787289992,26.5));
#1172=CARTESIAN_POINT('',(0.,0.,0.));
#1173=CARTESIAN_POINT('',(48.7297885119915,17.1185261569917,3.3));
#1174=CARTESIAN_POINT('',(48.7297885119915,17.1185261569917,26.5));
#1175=CARTESIAN_POINT('',(54.3168149888516,23.3759954571724,26.5));
#1176=CARTESIAN_POINT('',(43.1427620351315,10.861056856811,26.5));
#1177=CARTESIAN_POINT('',(54.3168149888516,23.3759954571724,3.3));
#1178=CARTESIAN_POINT('',(54.3168149888516,23.3759954571724,3.3));
#1179=CARTESIAN_POINT('',(48.7297885119915,17.1185261569917,3.3));
#1180=CARTESIAN_POINT('',(43.1427620351315,10.861056856811,3.3));
#1181=CARTESIAN_POINT('',(43.1427620351315,10.861056856811,3.3));
#1182=CARTESIAN_POINT('',(44.4091539829969,10.0788730196655,3.3));
#1183=CARTESIAN_POINT('',(44.4091539829969,10.0788730196655,26.5));
#1184=CARTESIAN_POINT('',(45.6755459308624,9.29668918251991,26.5));
#1185=CARTESIAN_POINT('',(44.4091539829969,10.0788730196655,3.3));
#1186=CARTESIAN_POINT('',(45.6755459308624,9.29668918251991,3.3));
#1187=CARTESIAN_POINT('',(45.6755459308624,9.29668918251991,3.3));
#1188=CARTESIAN_POINT('',(52.784712985158,15.8273736014962,3.3));
#1189=CARTESIAN_POINT('',(52.784712985158,15.8273736014962,26.5));
#1190=CARTESIAN_POINT('',(59.8938800394535,22.3580580204726,26.5));
#1191=CARTESIAN_POINT('',(52.784712985158,15.8273736014962,3.3));
#1192=CARTESIAN_POINT('',(59.8938800394535,22.3580580204726,3.3));
#1193=CARTESIAN_POINT('',(59.8938800394535,22.3580580204726,3.3));
#1194=CARTESIAN_POINT('',(57.1053475141525,22.8670267388224,3.3));
#1195=CARTESIAN_POINT('',(57.1053475141525,22.8670267388224,26.5));
#1196=CARTESIAN_POINT('',(57.1053475141525,22.8670267388224,3.3));
#1197=CARTESIAN_POINT('',(105.810994204755,12.8467787289992,3.3));
#1198=CARTESIAN_POINT('',(105.810994204755,12.8467787289992,26.5));
#1199=CARTESIAN_POINT('',(0.,0.,0.));
#1200=CARTESIAN_POINT('',(174.241483211518,16.4695223793387,5.));
#1201=CARTESIAN_POINT('',(174.241483211518,16.4695223793387,0.));
#1202=CARTESIAN_POINT('',(174.241483211518,28.037598012071,0.));
#1203=CARTESIAN_POINT('',(174.241483211518,4.90144674660649,0.));
#1204=CARTESIAN_POINT('',(174.241483211518,28.037598012071,5.));
#1205=CARTESIAN_POINT('',(174.241483211518,28.037598012071,5.));
#1206=CARTESIAN_POINT('',(174.241483211518,16.4695223793387,5.));
#1207=CARTESIAN_POINT('',(174.241483211518,4.90144674660649,5.));
#1208=CARTESIAN_POINT('',(174.241483211518,4.90144674660649,5.));
#1209=CARTESIAN_POINT('',(101.66085511446,40.1086658239364,5.));
#1210=CARTESIAN_POINT('',(101.66085511446,40.1086658239364,5.));
#1211=CARTESIAN_POINT('',(162.170415399652,40.1086658239364,5.));
#1212=CARTESIAN_POINT('',(41.1512948292681,40.1086658239364,5.));
#1213=CARTESIAN_POINT('',(162.170415399652,40.1086658239364,0.));
#1214=CARTESIAN_POINT('',(162.170415399652,40.1086658239364,0.));
#1215=CARTESIAN_POINT('',(101.66085511446,40.1086658239364,0.));
#1216=CARTESIAN_POINT('',(41.1512948292681,40.1086658239364,0.));
#1217=CARTESIAN_POINT('',(41.1512948292681,40.1086658239364,5.));
#1218=CARTESIAN_POINT('',(29.0802270174026,16.4695223793387,5.));
#1219=CARTESIAN_POINT('',(29.0802270174026,16.4695223793387,0.));
#1220=CARTESIAN_POINT('',(29.0802270174026,28.037598012071,0.));
#1221=CARTESIAN_POINT('',(29.0802270174026,4.90144674660649,0.));
#1222=CARTESIAN_POINT('',(29.0802270174026,4.90144674660649,5.));
#1223=CARTESIAN_POINT('',(29.0802270174026,4.90144674660649,5.));
#1224=CARTESIAN_POINT('',(29.0802270174026,16.4695223793387,5.));
#1225=CARTESIAN_POINT('',(29.0802270174026,28.037598012071,5.));
#1226=CARTESIAN_POINT('',(29.0802270174026,28.037598012071,5.));
#1227=CARTESIAN_POINT('',(101.66085511446,-7.16962106525899,5.));
#1228=CARTESIAN_POINT('',(101.66085511446,-7.16962106525899,0.));
#1229=CARTESIAN_POINT('',(162.170415399652,-7.16962106525899,0.));
#1230=CARTESIAN_POINT('',(41.1512948292681,-7.16962106525899,0.));
#1231=CARTESIAN_POINT('',(162.170415399652,-7.16962106525899,5.));
#1232=CARTESIAN_POINT('',(162.170415399652,-7.16962106525899,5.));
#1233=CARTESIAN_POINT('',(101.66085511446,-7.16962106525899,5.));
#1234=CARTESIAN_POINT('',(41.1512948292681,-7.16962106525899,5.));
#1235=CARTESIAN_POINT('',(41.1512948292681,-7.16962106525899,0.));
#1236=CARTESIAN_POINT('',(101.66085511446,16.4695223793387,5.));
#1237=CARTESIAN_POINT('',(162.170415399652,28.037598012071,5.));
#1238=CARTESIAN_POINT('',(41.1512948292681,28.037598012071,5.));
#1239=CARTESIAN_POINT('',(41.1512948292681,4.90144674660649,5.));
#1240=CARTESIAN_POINT('',(162.170415399652,4.90144674660649,5.));
#1241=CARTESIAN_POINT('',(101.66085511446,16.4695223793387,0.));
#1242=CARTESIAN_POINT('',(162.170415399652,28.037598012071,0.));
#1243=CARTESIAN_POINT('',(162.170415399652,4.90144674660649,0.));
#1244=CARTESIAN_POINT('',(41.1512948292681,4.90144674660649,0.));
#1245=CARTESIAN_POINT('',(41.1512948292681,28.037598012071,0.));
#1246=CARTESIAN_POINT('',(162.170415399652,28.037598012071,5.));
#1247=CARTESIAN_POINT('',(162.170415399652,4.90144674660649,5.));
#1248=CARTESIAN_POINT('',(41.1512948292681,4.90144674660649,5.));
#1249=CARTESIAN_POINT('',(41.1512948292681,28.037598012071,5.));
#1250=CARTESIAN_POINT('',(0.,0.,0.));
#1251=CARTESIAN_POINT('',(163.012896116092,9.78461942365965,5.));
#1252=CARTESIAN_POINT('',(163.012896116092,9.78461942365965,1.73472347597681E-15));
#1253=CARTESIAN_POINT('',(168.067825766646,16.4695223793387,5.));
#1254=CARTESIAN_POINT('',(168.067825766646,16.4695223793387,0.));
#1255=CARTESIAN_POINT('',(163.012896116092,23.1544253350178,5.));
#1256=CARTESIAN_POINT('',(163.012896116092,23.1544253350178,0.));
#1257=CARTESIAN_POINT('',(148.617674380677,28.821612414491,5.));
#1258=CARTESIAN_POINT('',(148.617674380677,28.821612414491,0.));
#1259=CARTESIAN_POINT('',(127.073702576606,32.6083057580872,5.));
#1260=CARTESIAN_POINT('',(127.073702576606,32.6083057580872,8.67361737988404E-16));
#1261=CARTESIAN_POINT('',(101.66085511446,33.9380156307046,5.));
#1262=CARTESIAN_POINT('',(101.66085511446,33.9380156307046,0.));
#1263=CARTESIAN_POINT('',(76.2480076523138,32.6083057580872,5.));
#1264=CARTESIAN_POINT('',(76.2480076523138,32.6083057580872,8.67361737988404E-16));
#1265=CARTESIAN_POINT('',(54.7040358482433,28.821612414491,5.));
#1266=CARTESIAN_POINT('',(54.7040358482433,28.821612414491,0.));
#1267=CARTESIAN_POINT('',(40.308814112828,23.1544253350179,5.));
#1268=CARTESIAN_POINT('',(40.308814112828,23.1544253350179,8.67361737988404E-16));
#1269=CARTESIAN_POINT('',(35.2538844622743,16.4695223793387,5.));
#1270=CARTESIAN_POINT('',(35.2538844622743,16.4695223793387,8.67361737988404E-16));
#1271=CARTESIAN_POINT('',(40.3088141128278,9.78461942365971,5.));
#1272=CARTESIAN_POINT('',(40.3088141128278,9.78461942365971,0.));
#1273=CARTESIAN_POINT('',(54.7040358482435,4.11743234418649,5.));
#1274=CARTESIAN_POINT('',(54.7040358482435,4.11743234418649,0.));
#1275=CARTESIAN_POINT('',(76.2480076523136,0.330739000590323,5.));
#1276=CARTESIAN_POINT('',(76.2480076523136,0.330739000590323,8.67361737988404E-16));
#1277=CARTESIAN_POINT('',(101.66085511446,-0.998970872027106,5.));
#1278=CARTESIAN_POINT('',(101.66085511446,-0.998970872027106,0.));
#1279=CARTESIAN_POINT('',(127.073702576606,0.330739000590296,5.));
#1280=CARTESIAN_POINT('',(127.073702576606,0.330739000590296,2.60208521396521E-15));
#1281=CARTESIAN_POINT('',(148.617674380676,4.11743234418647,5.));
#1282=CARTESIAN_POINT('',(148.617674380676,4.11743234418647,-8.67361737988404E-16));
#1283=CARTESIAN_POINT('',(163.012896116092,9.78461942365965,5.));
#1284=CARTESIAN_POINT('',(163.012896116092,9.78461942365965,1.73472347597681E-15));
#1285=CARTESIAN_POINT('',(168.067825766646,16.4695223793387,5.));
#1286=CARTESIAN_POINT('',(168.067825766646,16.4695223793387,0.));
#1287=CARTESIAN_POINT('',(163.012896116092,23.1544253350178,5.));
#1288=CARTESIAN_POINT('',(163.012896116092,23.1544253350178,0.));
#1289=CARTESIAN_POINT('',(101.66085511446,16.4695223793387,5.));
#1290=CARTESIAN_POINT('',(166.382849216461,16.4695223793387,5.));
#1291=CARTESIAN_POINT('',(101.66085511446,16.4695223793387,0.));
#1292=CARTESIAN_POINT('',(166.382849216461,16.4695223793387,0.));
#1293=CARTESIAN_POINT('',(99.4753912091255,18.4392272006185,5.));
#1294=CARTESIAN_POINT('',(99.4753912091255,18.4392272006185,0.));
#1295=CARTESIAN_POINT('',(0.,0.,0.));
#1296=CARTESIAN_POINT('',(67.6900669932365,22.3580580204726,26.5));
#1297=CARTESIAN_POINT('',(67.6900669932365,22.3580580204726,21.5));
#1298=CARTESIAN_POINT('',(69.7333241502444,24.0421959509452,26.5));
#1299=CARTESIAN_POINT('',(69.7333241502444,24.0421959509452,21.5));
#1300=CARTESIAN_POINT('',(72.196215391159,25.1264938463767,26.5));
#1301=CARTESIAN_POINT('',(72.196215391159,25.1264938463767,21.5));
#1302=CARTESIAN_POINT('',(75.0787407159805,25.6109517067671,26.5));
#1303=CARTESIAN_POINT('',(75.0787407159805,25.6109517067671,21.5));
#1304=CARTESIAN_POINT('',(67.6900669932365,22.3580580204726,21.5));
#1305=CARTESIAN_POINT('',(70.7549527287483,24.8842649161816,21.5));
#1306=CARTESIAN_POINT('',(75.0787407159805,25.6109517067671,21.5));
#1307=CARTESIAN_POINT('',(67.6900669932365,22.3580580204726,21.5));
#1308=CARTESIAN_POINT('',(75.0787407159805,25.6109517067671,21.5));
#1309=CARTESIAN_POINT('',(67.6900669932365,22.3580580204726,26.5));
#1310=CARTESIAN_POINT('',(67.6900669932365,22.3580580204726,26.5));
#1311=CARTESIAN_POINT('',(67.6900669932365,22.3580580204726,26.5));
#1312=CARTESIAN_POINT('',(70.7549527287483,24.8842649161816,26.5));
#1313=CARTESIAN_POINT('',(75.0787407159805,25.6109517067671,26.5));
#1314=CARTESIAN_POINT('',(75.0787407159805,25.6109517067671,26.5));
#1315=CARTESIAN_POINT('',(75.0787407159805,25.6109517067671,26.5));
#1316=CARTESIAN_POINT('',(40.5392982065678,-0.34256326034665,26.5));
#1317=CARTESIAN_POINT('',(40.5392982065678,-0.34256326034665,21.5));
#1318=CARTESIAN_POINT('',(49.3141921857992,8.03561741486192,26.5));
#1319=CARTESIAN_POINT('',(49.3141921857992,8.03561741486192,21.5));
#1320=CARTESIAN_POINT('',(58.3644484480222,15.602491175135,26.5));
#1321=CARTESIAN_POINT('',(58.3644484480222,15.602491175135,21.5));
#1322=CARTESIAN_POINT('',(67.6900669932365,22.3580580204726,26.5));
#1323=CARTESIAN_POINT('',(67.6900669932365,22.3580580204726,21.5));
#1324=CARTESIAN_POINT('',(40.5392982065678,-0.34256326034665,21.5));
#1325=CARTESIAN_POINT('',(53.701639175415,12.2247077524662,21.5));
#1326=CARTESIAN_POINT('',(67.6900669932365,22.3580580204726,21.5));
#1327=CARTESIAN_POINT('',(40.5392982065678,-0.34256326034665,21.5));
#1328=CARTESIAN_POINT('',(40.5392982065678,-0.34256326034665,26.5));
#1329=CARTESIAN_POINT('',(40.5392982065678,-0.34256326034665,26.5));
#1330=CARTESIAN_POINT('',(40.5392982065678,-0.34256326034665,26.5));
#1331=CARTESIAN_POINT('',(53.701639175415,12.2247077524662,26.5));
#1332=CARTESIAN_POINT('',(67.6900669932365,22.3580580204726,26.5));
#1333=CARTESIAN_POINT('',(42.200094088912,-0.34256326034665,26.5));
#1334=CARTESIAN_POINT('',(42.200094088912,-0.34256326034665,21.5));
#1335=CARTESIAN_POINT('',(43.8608899712562,-0.34256326034665,21.5));
#1336=CARTESIAN_POINT('',(43.8608899712562,-0.34256326034665,26.5));
#1337=CARTESIAN_POINT('',(43.8608899712562,-0.34256326034665,26.5));
#1338=CARTESIAN_POINT('',(42.200094088912,-0.34256326034665,26.5));
#1339=CARTESIAN_POINT('',(43.8608899712562,-0.342563260346649,26.5));
#1340=CARTESIAN_POINT('',(43.8608899712562,-0.342563260346649,21.5));
#1341=CARTESIAN_POINT('',(45.2321867148081,-0.342563260346649,26.5));
#1342=CARTESIAN_POINT('',(45.2321867148081,-0.342563260346649,21.5));
#1343=CARTESIAN_POINT('',(46.6284168263276,0.084692903328688,26.5));
#1344=CARTESIAN_POINT('',(46.6284168263276,0.084692903328688,21.5));
#1345=CARTESIAN_POINT('',(48.0495803058147,0.939205230679363,26.5));
#1346=CARTESIAN_POINT('',(48.0495803058147,0.939205230679363,21.5));
#1347=CARTESIAN_POINT('',(43.8608899712562,-0.342563260346649,21.5));
#1348=CARTESIAN_POINT('',(45.9178350865841,-0.34256326034665,21.5));
#1349=CARTESIAN_POINT('',(48.0495803058147,0.939205230679363,21.5));
#1350=CARTESIAN_POINT('',(48.0495803058147,0.939205230679363,21.5));
#1351=CARTESIAN_POINT('',(48.0495803058147,0.939205230679363,26.5));
#1352=CARTESIAN_POINT('',(48.0495803058147,0.939205230679363,26.5));
#1353=CARTESIAN_POINT('',(43.8608899712562,-0.342563260346649,26.5));
#1354=CARTESIAN_POINT('',(45.9178350865841,-0.34256326034665,26.5));
#1355=CARTESIAN_POINT('',(48.0495803058147,0.939205230679363,26.5));
#1356=CARTESIAN_POINT('',(49.4707431644201,1.72458493034355,26.5));
#1357=CARTESIAN_POINT('',(49.4707431644201,1.72458493034355,21.5));
#1358=CARTESIAN_POINT('',(50.8919060230255,2.50996463000775,21.5));
#1359=CARTESIAN_POINT('',(50.8919060230255,2.50996463000775,26.5));
#1360=CARTESIAN_POINT('',(50.8919060230255,2.50996463000775,26.5));
#1361=CARTESIAN_POINT('',(49.4707431644201,1.72458493034355,26.5));
#1362=CARTESIAN_POINT('',(56.5765537321568,6.28726556897163,26.5));
#1363=CARTESIAN_POINT('',(56.5765537321568,6.28726556897163,21.5));
#1364=CARTESIAN_POINT('',(54.4323436915875,4.91596820453803,26.5));
#1365=CARTESIAN_POINT('',(54.4323436915875,4.91596820453803,21.5));
#1366=CARTESIAN_POINT('',(52.537461121877,3.65686789155007,26.5));
#1367=CARTESIAN_POINT('',(52.537461121877,3.65686789155007,21.5));
#1368=CARTESIAN_POINT('',(50.8919060230255,2.50996463000775,26.5));
#1369=CARTESIAN_POINT('',(50.8919060230255,2.50996463000775,21.5));
#1370=CARTESIAN_POINT('',(56.5765537321568,6.28726556897163,21.5));
#1371=CARTESIAN_POINT('',(53.3602386713028,4.23031952232123,21.5));
#1372=CARTESIAN_POINT('',(50.8919060230255,2.50996463000775,21.5));
#1373=CARTESIAN_POINT('',(56.5765537321568,6.28726556897163,21.5));
#1374=CARTESIAN_POINT('',(56.5765537321568,6.28726556897163,26.5));
#1375=CARTESIAN_POINT('',(56.5765537321568,6.28726556897163,26.5));
#1376=CARTESIAN_POINT('',(56.5765537321568,6.28726556897163,26.5));
#1377=CARTESIAN_POINT('',(53.3602386713028,4.23031952232123,26.5));
#1378=CARTESIAN_POINT('',(50.8919060230255,2.50996463000775,26.5));
#1379=CARTESIAN_POINT('',(64.582385122776,10.8824176713824,26.5));
#1380=CARTESIAN_POINT('',(64.582385122776,10.8824176713824,21.5));
#1381=CARTESIAN_POINT('',(61.7135018110275,9.51440477122863,26.5));
#1382=CARTESIAN_POINT('',(61.7135018110275,9.51440477122863,21.5));
#1383=CARTESIAN_POINT('',(59.0448913474878,7.98268740375836,26.5));
#1384=CARTESIAN_POINT('',(59.0448913474878,7.98268740375836,21.5));
#1385=CARTESIAN_POINT('',(56.5765537321568,6.28726556897163,26.5));
#1386=CARTESIAN_POINT('',(56.5765537321568,6.28726556897163,21.5));
#1387=CARTESIAN_POINT('',(64.582385122776,10.8824176713824,21.5));
#1388=CARTESIAN_POINT('',(60.2790601551533,8.83039832115173,21.5));
#1389=CARTESIAN_POINT('',(56.5765537321568,6.28726556897163,21.5));
#1390=CARTESIAN_POINT('',(64.582385122776,10.8824176713824,21.5));
#1391=CARTESIAN_POINT('',(64.582385122776,10.8824176713824,26.5));
#1392=CARTESIAN_POINT('',(64.582385122776,10.8824176713824,26.5));
#1393=CARTESIAN_POINT('',(64.582385122776,10.8824176713824,26.5));
#1394=CARTESIAN_POINT('',(60.2790601551533,8.83039832115173,26.5));
#1395=CARTESIAN_POINT('',(56.5765537321568,6.28726556897163,26.5));
#1396=CARTESIAN_POINT('',(74.4877234101296,14.4606912508607,26.5));
#1397=CARTESIAN_POINT('',(74.4877234101296,14.4606912508607,21.5));
#1398=CARTESIAN_POINT('',(71.2205742796262,13.8146712755164,26.5));
#1399=CARTESIAN_POINT('',(71.2205742796262,13.8146712755164,21.5));
#1400=CARTESIAN_POINT('',(67.9187948505083,12.6219134156903,26.5));
#1401=CARTESIAN_POINT('',(67.9187948505083,12.6219134156903,21.5));
#1402=CARTESIAN_POINT('',(64.582385122776,10.8824176713824,26.5));
#1403=CARTESIAN_POINT('',(64.582385122776,10.8824176713824,21.5));
#1404=CARTESIAN_POINT('',(74.4877234101296,14.4606912508607,21.5));
#1405=CARTESIAN_POINT('',(69.5869997143745,13.4916612878442,21.5));
#1406=CARTESIAN_POINT('',(64.582385122776,10.8824176713824,21.5));
#1407=CARTESIAN_POINT('',(74.4877234101296,14.4606912508607,21.5));
#1408=CARTESIAN_POINT('',(74.4877234101296,14.4606912508607,26.5));
#1409=CARTESIAN_POINT('',(74.4877234101296,14.4606912508607,26.5));
#1410=CARTESIAN_POINT('',(74.4877234101296,14.4606912508607,26.5));
#1411=CARTESIAN_POINT('',(69.5869997143745,13.4916612878442,26.5));
#1412=CARTESIAN_POINT('',(64.582385122776,10.8824176713824,26.5));
#1413=CARTESIAN_POINT('',(74.4877234101296,14.4606912508607,26.5));
#1414=CARTESIAN_POINT('',(74.4877234101296,14.4606912508607,21.5));
#1415=CARTESIAN_POINT('',(78.5528446237247,15.3712794805567,26.5));
#1416=CARTESIAN_POINT('',(78.5528446237247,15.3712794805567,21.5));
#1417=CARTESIAN_POINT('',(83.008219798406,15.4688423499465,26.5));
#1418=CARTESIAN_POINT('',(83.008219798406,15.4688423499465,21.5));
#1419=CARTESIAN_POINT('',(87.8538489341736,14.7533798590302,26.5));
#1420=CARTESIAN_POINT('',(87.8538489341736,14.7533798590302,21.5));
#1421=CARTESIAN_POINT('',(74.4877234101296,14.4606912508607,21.5));
#1422=CARTESIAN_POINT('',(80.5854052305222,15.8265735954046,21.5));
#1423=CARTESIAN_POINT('',(87.8538489341736,14.7533798590302,21.5));
#1424=CARTESIAN_POINT('',(87.8538489341736,14.7533798590302,21.5));
#1425=CARTESIAN_POINT('',(87.8538489341736,14.7533798590302,26.5));
#1426=CARTESIAN_POINT('',(87.8538489341736,14.7533798590302,26.5));
#1427=CARTESIAN_POINT('',(74.4877234101296,14.4606912508607,26.5));
#1428=CARTESIAN_POINT('',(80.5854052305222,15.8265735954046,26.5));
#1429=CARTESIAN_POINT('',(87.8538489341736,14.7533798590302,26.5));
#1430=CARTESIAN_POINT('',(100.773006677628,11.110857129097,26.5));
#1431=CARTESIAN_POINT('',(100.773006677628,11.110857129097,21.5));
#1432=CARTESIAN_POINT('',(96.3229238986969,12.8887860725323,26.5));
#1433=CARTESIAN_POINT('',(96.3229238986969,12.8887860725323,21.5));
#1434=CARTESIAN_POINT('',(92.0165379842123,14.1029603158434,26.5));
#1435=CARTESIAN_POINT('',(92.0165379842123,14.1029603158434,21.5));
#1436=CARTESIAN_POINT('',(87.8538489341736,14.7533798590302,26.5));
#1437=CARTESIAN_POINT('',(87.8538489341736,14.7533798590302,21.5));
#1438=CARTESIAN_POINT('',(100.773006677628,11.110857129097,21.5));
#1439=CARTESIAN_POINT('',(94.0978825092316,13.77775054425,21.5));
#1440=CARTESIAN_POINT('',(87.8538489341736,14.7533798590302,21.5));
#1441=CARTESIAN_POINT('',(100.773006677628,11.110857129097,21.5));
#1442=CARTESIAN_POINT('',(100.773006677628,11.110857129097,26.5));
#1443=CARTESIAN_POINT('',(100.773006677628,11.110857129097,26.5));
#1444=CARTESIAN_POINT('',(100.773006677628,11.110857129097,26.5));
#1445=CARTESIAN_POINT('',(94.0978825092316,13.77775054425,26.5));
#1446=CARTESIAN_POINT('',(87.8538489341736,14.7533798590302,26.5));
#1447=CARTESIAN_POINT('',(119.936317205429,2.60853744111955,26.5));
#1448=CARTESIAN_POINT('',(119.936317205429,2.60853744111955,21.5));
#1449=CARTESIAN_POINT('',(110.57503024737,7.16568087227642,26.5));
#1450=CARTESIAN_POINT('',(110.57503024737,7.16568087227642,21.5));
#1451=CARTESIAN_POINT('',(104.187260071437,9.99978743493557,26.5));
#1452=CARTESIAN_POINT('',(104.187260071437,9.99978743493557,21.5));
#1453=CARTESIAN_POINT('',(100.773006677628,11.110857129097,26.5));
#1454=CARTESIAN_POINT('',(100.773006677628,11.110857129097,21.5));
#1455=CARTESIAN_POINT('',(119.936317205429,2.60853744111955,21.5));
#1456=CARTESIAN_POINT('',(105.894386768341,9.44425258785486,21.5));
#1457=CARTESIAN_POINT('',(100.773006677628,11.110857129097,21.5));
#1458=CARTESIAN_POINT('',(119.936317205429,2.60853744111955,21.5));
#1459=CARTESIAN_POINT('',(119.936317205429,2.60853744111955,26.5));
#1460=CARTESIAN_POINT('',(119.936317205429,2.60853744111955,26.5));
#1461=CARTESIAN_POINT('',(119.936317205429,2.60853744111955,26.5));
#1462=CARTESIAN_POINT('',(105.894386768341,9.44425258785486,26.5));
#1463=CARTESIAN_POINT('',(100.773006677628,11.110857129097,26.5));
#1464=CARTESIAN_POINT('',(137.573167681694,1.61871442105621,26.5));
#1465=CARTESIAN_POINT('',(137.573167681694,1.61871442105621,21.5));
#1466=CARTESIAN_POINT('',(131.634230415026,-1.08080237017324,26.5));
#1467=CARTESIAN_POINT('',(131.634230415026,-1.08080237017324,21.5));
#1468=CARTESIAN_POINT('',(125.755280256271,-0.750861363485457,26.5));
#1469=CARTESIAN_POINT('',(125.755280256271,-0.750861363485457,21.5));
#1470=CARTESIAN_POINT('',(119.936317205429,2.60853744111955,26.5));
#1471=CARTESIAN_POINT('',(119.936317205429,2.60853744111955,21.5));
#1472=CARTESIAN_POINT('',(137.573167681694,1.61871442105621,21.5));
#1473=CARTESIAN_POINT('',(128.664761781692,-2.43056076578796,21.5));
#1474=CARTESIAN_POINT('',(119.936317205429,2.60853744111955,21.5));
#1475=CARTESIAN_POINT('',(137.573167681694,1.61871442105621,21.5));
#1476=CARTESIAN_POINT('',(137.573167681694,1.61871442105621,26.5));
#1477=CARTESIAN_POINT('',(137.573167681694,1.61871442105621,26.5));
#1478=CARTESIAN_POINT('',(137.573167681694,1.61871442105621,26.5));
#1479=CARTESIAN_POINT('',(128.664761781692,-2.43056076578796,26.5));
#1480=CARTESIAN_POINT('',(119.936317205429,2.60853744111955,26.5));
#1481=CARTESIAN_POINT('',(171.082690202942,18.5458126943558,26.5));
#1482=CARTESIAN_POINT('',(171.082690202942,18.5458126943558,21.5));
#1483=CARTESIAN_POINT('',(158.821200279312,11.1003951945653,26.5));
#1484=CARTESIAN_POINT('',(158.821200279312,11.1003951945653,21.5));
#1485=CARTESIAN_POINT('',(147.651359438896,5.45802910346538,26.5));
#1486=CARTESIAN_POINT('',(147.651359438896,5.45802910346538,21.5));
#1487=CARTESIAN_POINT('',(137.573167681694,1.61871442105621,26.5));
#1488=CARTESIAN_POINT('',(137.573167681694,1.61871442105621,21.5));
#1489=CARTESIAN_POINT('',(171.082690202942,18.5458126943558,21.5));
#1490=CARTESIAN_POINT('',(152.690455317498,7.37768644466996,21.5));
#1491=CARTESIAN_POINT('',(137.573167681694,1.61871442105621,21.5));
#1492=CARTESIAN_POINT('',(171.082690202942,18.5458126943558,21.5));
#1493=CARTESIAN_POINT('',(171.082690202942,18.5458126943558,26.5));
#1494=CARTESIAN_POINT('',(171.082690202942,18.5458126943558,26.5));
#1495=CARTESIAN_POINT('',(171.082690202942,18.5458126943558,26.5));
#1496=CARTESIAN_POINT('',(152.690455317498,7.37768644466996,26.5));
#1497=CARTESIAN_POINT('',(137.573167681694,1.61871442105621,26.5));
#1498=CARTESIAN_POINT('',(118.172951042652,27.3261740803719,26.5));
#1499=CARTESIAN_POINT('',(118.172951042652,27.3261740803719,21.5));
#1500=CARTESIAN_POINT('',(140.944662193457,24.7652617593606,26.5));
#1501=CARTESIAN_POINT('',(140.944662193457,24.7652617593606,21.5));
#1502=CARTESIAN_POINT('',(158.581241913554,21.8384746306886,26.5));
#1503=CARTESIAN_POINT('',(158.581241913554,21.8384746306886,21.5));
#1504=CARTESIAN_POINT('',(171.082690202942,18.5458126943558,26.5));
#1505=CARTESIAN_POINT('',(171.082690202942,18.5458126943558,21.5));
#1506=CARTESIAN_POINT('',(118.172951042652,27.3261740803719,21.5));
#1507=CARTESIAN_POINT('',(152.33051776886,23.484805598855,21.5));
#1508=CARTESIAN_POINT('',(171.082690202942,18.5458126943558,21.5));
#1509=CARTESIAN_POINT('',(118.172951042652,27.3261740803719,21.5));
#1510=CARTESIAN_POINT('',(118.172951042652,27.3261740803719,26.5));
#1511=CARTESIAN_POINT('',(118.172951042652,27.3261740803719,26.5));
#1512=CARTESIAN_POINT('',(118.172951042652,27.3261740803719,26.5));
#1513=CARTESIAN_POINT('',(152.33051776886,23.484805598855,26.5));
#1514=CARTESIAN_POINT('',(171.082690202942,18.5458126943558,26.5));
#1515=CARTESIAN_POINT('',(92.4280509352684,27.8146099299192,26.5));
#1516=CARTESIAN_POINT('',(92.4280509352684,27.8146099299192,21.5));
#1517=CARTESIAN_POINT('',(93.5957073234022,27.8436263324693,26.5));
#1518=CARTESIAN_POINT('',(93.5957073234022,27.8436263324693,21.5));
#1519=CARTESIAN_POINT('',(95.3457445789652,27.8869400545187,26.5));
#1520=CARTESIAN_POINT('',(95.3457445789652,27.8869400545187,21.5));
#1521=CARTESIAN_POINT('',(97.6825090799737,27.9442900902164,26.5));
#1522=CARTESIAN_POINT('',(97.6825090799737,27.9442900902164,21.5));
#1523=CARTESIAN_POINT('',(99.3879698316697,27.9853496286717,26.5));
#1524=CARTESIAN_POINT('',(99.3879698316697,27.9853496286717,21.5));
#1525=CARTESIAN_POINT('',(100.666081507708,28.0151684084474,26.5));
#1526=CARTESIAN_POINT('',(100.666081507708,28.0151684084474,21.5));
#1527=CARTESIAN_POINT('',(101.529841889057,28.0344195924266,26.5));
#1528=CARTESIAN_POINT('',(101.529841889057,28.0344195924266,21.5));
#1529=CARTESIAN_POINT('',(102.160416289463,28.0476403869654,26.5));
#1530=CARTESIAN_POINT('',(102.160416289463,28.0476403869654,21.5));
#1531=CARTESIAN_POINT('',(102.803757019376,28.0600552552875,26.5));
#1532=CARTESIAN_POINT('',(102.803757019376,28.0600552552875,21.5));
#1533=CARTESIAN_POINT('',(103.36978648651,28.0690673240247,26.5));
#1534=CARTESIAN_POINT('',(103.36978648651,28.0690673240247,21.5));
#1535=CARTESIAN_POINT('',(103.865637883912,28.074232318684,26.5));
#1536=CARTESIAN_POINT('',(103.865637883912,28.074232318684,21.5));
#1537=CARTESIAN_POINT('',(104.261006117854,28.0755484456657,26.5));
#1538=CARTESIAN_POINT('',(104.261006117854,28.0755484456657,21.5));
#1539=CARTESIAN_POINT('',(104.603797837698,28.0738252551068,26.5));
#1540=CARTESIAN_POINT('',(104.603797837698,28.0738252551068,21.5));
#1541=CARTESIAN_POINT('',(104.924410877747,28.0692581290121,26.5));
#1542=CARTESIAN_POINT('',(104.924410877747,28.0692581290121,21.5));
#1543=CARTESIAN_POINT('',(105.247342251645,28.0616158403786,26.5));
#1544=CARTESIAN_POINT('',(105.247342251645,28.0616158403786,21.5));
#1545=CARTESIAN_POINT('',(105.5974461999,28.0501933173055,26.5));
#1546=CARTESIAN_POINT('',(105.5974461999,28.0501933173055,21.5));
#1547=CARTESIAN_POINT('',(106.006301596746,28.0336193469959,26.5));
#1548=CARTESIAN_POINT('',(106.006301596746,28.0336193469959,21.5));
#1549=CARTESIAN_POINT('',(106.524443720252,28.0092167252822,26.5));
#1550=CARTESIAN_POINT('',(106.524443720252,28.0092167252822,21.5));
#1551=CARTESIAN_POINT('',(107.120685252278,27.9781538884118,26.5));
#1552=CARTESIAN_POINT('',(107.120685252278,27.9781538884118,21.5));
#1553=CARTESIAN_POINT('',(107.801686809336,27.9406134127915,26.5));
#1554=CARTESIAN_POINT('',(107.801686809336,27.9406134127915,21.5));
#1555=CARTESIAN_POINT('',(108.470784338333,27.9027350604327,26.5));
#1556=CARTESIAN_POINT('',(108.470784338333,27.9027350604327,21.5));
#1557=CARTESIAN_POINT('',(109.38905954827,27.8496748477013,26.5));
#1558=CARTESIAN_POINT('',(109.38905954827,27.8496748477013,21.5));
#1559=CARTESIAN_POINT('',(110.749875706927,27.7697899595523,26.5));
#1560=CARTESIAN_POINT('',(110.749875706927,27.7697899595523,21.5));
#1561=CARTESIAN_POINT('',(112.567637511627,27.6618873494479,26.5));
#1562=CARTESIAN_POINT('',(112.567637511627,27.6618873494479,21.5));
#1563=CARTESIAN_POINT('',(115.059942956717,27.5129195225835,26.5));
#1564=CARTESIAN_POINT('',(115.059942956717,27.5129195225835,21.5));
#1565=CARTESIAN_POINT('',(116.927023045719,27.400981343817,26.5));
#1566=CARTESIAN_POINT('',(116.927023045719,27.400981343817,21.5));
#1567=CARTESIAN_POINT('',(118.172951042652,27.3261740803719,26.5));
#1568=CARTESIAN_POINT('',(118.172951042652,27.3261740803719,21.5));
#1569=CARTESIAN_POINT('',(92.4280509352684,27.8146099299192,21.5));
#1570=CARTESIAN_POINT('',(104.883052408695,28.1241182237864,21.5));
#1571=CARTESIAN_POINT('',(118.172951042652,27.3261740803719,21.5));
#1572=CARTESIAN_POINT('',(92.4280509352684,27.8146099299192,21.5));
#1573=CARTESIAN_POINT('',(92.4280509352684,27.8146099299192,26.5));
#1574=CARTESIAN_POINT('',(92.4280509352684,27.8146099299192,26.5));
#1575=CARTESIAN_POINT('',(92.4280509352684,27.8146099299192,26.5));
#1576=CARTESIAN_POINT('',(104.883052408695,28.1241182237864,26.5));
#1577=CARTESIAN_POINT('',(118.172951042652,27.3261740803719,26.5));
#1578=CARTESIAN_POINT('',(75.0787407159805,25.6109517067671,26.5));
#1579=CARTESIAN_POINT('',(75.0787407159805,25.6109517067671,21.5));
#1580=CARTESIAN_POINT('',(79.9149771531423,26.440325503548,26.5));
#1581=CARTESIAN_POINT('',(79.9149771531423,26.440325503548,21.5));
#1582=CARTESIAN_POINT('',(85.6980805595716,27.1748782445987,26.5));
#1583=CARTESIAN_POINT('',(85.6980805595716,27.1748782445987,21.5));
#1584=CARTESIAN_POINT('',(92.4280509352684,27.8146099299192,26.5));
#1585=CARTESIAN_POINT('',(92.4280509352684,27.8146099299192,21.5));
#1586=CARTESIAN_POINT('',(75.0787407159805,25.6109517067671,21.5));
#1587=CARTESIAN_POINT('',(82.3330953717232,26.8550124019384,21.5));
#1588=CARTESIAN_POINT('',(92.4280509352684,27.8146099299192,21.5));
#1589=CARTESIAN_POINT('',(75.0787407159805,25.6109517067671,26.5));
#1590=CARTESIAN_POINT('',(82.3330953717232,26.8550124019384,26.5));
#1591=CARTESIAN_POINT('',(92.4280509352684,27.8146099299192,26.5));
#1592=CARTESIAN_POINT('',(101.825311702366,17.5018139416352,26.5));
#1593=CARTESIAN_POINT('',(101.825311702366,17.5018139416352,21.5));
#1594=CARTESIAN_POINT('',(0.,0.,0.));
#1595=CARTESIAN_POINT('',(61.3147243857383,31.7660495638847,26.5));
#1596=CARTESIAN_POINT('',(61.3147243857383,31.7660495638847,21.5));
#1597=CARTESIAN_POINT('',(63.2224505146344,33.5842420657476,26.5));
#1598=CARTESIAN_POINT('',(63.2224505146344,33.5842420657476,21.5));
#1599=CARTESIAN_POINT('',(65.6364411115646,34.897681325674,26.5));
#1600=CARTESIAN_POINT('',(65.6364411115646,34.897681325674,21.5));
#1601=CARTESIAN_POINT('',(68.5566961765289,35.7063673436641,26.5));
#1602=CARTESIAN_POINT('',(68.5566961765289,35.7063673436641,21.5));
#1603=CARTESIAN_POINT('',(61.3147243857383,31.7660495638847,21.5));
#1604=CARTESIAN_POINT('',(64.1763135790825,34.493338316679,21.5));
#1605=CARTESIAN_POINT('',(68.5566961765289,35.7063673436641,21.5));
#1606=CARTESIAN_POINT('',(61.3147243857383,31.7660495638847,21.5));
#1607=CARTESIAN_POINT('',(68.5566961765289,35.7063673436641,21.5));
#1608=CARTESIAN_POINT('',(61.3147243857383,31.7660495638847,26.5));
#1609=CARTESIAN_POINT('',(61.3147243857383,31.7660495638847,26.5));
#1610=CARTESIAN_POINT('',(61.3147243857383,31.7660495638847,26.5));
#1611=CARTESIAN_POINT('',(64.1763135790825,34.493338316679,26.5));
#1612=CARTESIAN_POINT('',(68.5566961765289,35.7063673436641,26.5));
#1613=CARTESIAN_POINT('',(68.5566961765289,35.7063673436641,26.5));
#1614=CARTESIAN_POINT('',(68.5566961765289,35.7063673436641,26.5));
#1615=CARTESIAN_POINT('',(361.259056241244,-265.696429970149,26.5));
#1616=CARTESIAN_POINT('',(361.259056241244,-265.696429970149,21.5));
#1617=CARTESIAN_POINT('',(32.5679332017899,-0.34256326034665,21.5));
#1618=CARTESIAN_POINT('',(32.5679332017899,-0.34256326034665,26.5));
#1619=CARTESIAN_POINT('',(32.5679332017899,-0.34256326034665,26.5));
#1620=CARTESIAN_POINT('',(361.259056241244,-265.696429970149,26.5));
#1621=CARTESIAN_POINT('',(34.9838975816966,-0.34256326034665,26.5));
#1622=CARTESIAN_POINT('',(34.9838975816966,-0.34256326034665,21.5));
#1623=CARTESIAN_POINT('',(37.3998619616032,-0.34256326034665,21.5));
#1624=CARTESIAN_POINT('',(37.3998619616032,-0.34256326034665,26.5));
#1625=CARTESIAN_POINT('',(37.3998619616032,-0.34256326034665,26.5));
#1626=CARTESIAN_POINT('',(34.9838975816966,-0.34256326034665,26.5));
#1627=CARTESIAN_POINT('',(47.9441769421101,10.1879956200719,26.5));
#1628=CARTESIAN_POINT('',(47.9441769421101,10.1879956200719,21.5));
#1629=CARTESIAN_POINT('',(45.8444443841775,8.39257116119067,26.5));
#1630=CARTESIAN_POINT('',(45.8444443841775,8.39257116119067,21.5));
#1631=CARTESIAN_POINT('',(42.3296727240086,4.88238486771782,26.5));
#1632=CARTESIAN_POINT('',(42.3296727240086,4.88238486771782,21.5));
#1633=CARTESIAN_POINT('',(37.3998619616032,-0.34256326034665,26.5));
#1634=CARTESIAN_POINT('',(37.3998619616032,-0.34256326034665,21.5));
#1635=CARTESIAN_POINT('',(47.9441769421101,10.1879956200719,21.5));
#1636=CARTESIAN_POINT('',(44.7945781052113,7.49485893175006,21.5));
#1637=CARTESIAN_POINT('',(37.3998619616032,-0.34256326034665,21.5));
#1638=CARTESIAN_POINT('',(47.9441769421101,10.1879956200719,21.5));
#1639=CARTESIAN_POINT('',(47.9441769421101,10.1879956200719,26.5));
#1640=CARTESIAN_POINT('',(47.9441769421101,10.1879956200719,26.5));
#1641=CARTESIAN_POINT('',(47.9441769421101,10.1879956200719,26.5));
#1642=CARTESIAN_POINT('',(44.7945781052113,7.49485893175006,26.5));
#1643=CARTESIAN_POINT('',(37.3998619616032,-0.34256326034665,26.5));
#1644=CARTESIAN_POINT('',(59.8938800394535,20.4998757690192,26.5));
#1645=CARTESIAN_POINT('',(59.8938800394535,20.4998757690192,21.5));
#1646=CARTESIAN_POINT('',(56.8720164398352,18.1912537664175,26.5));
#1647=CARTESIAN_POINT('',(56.8720164398352,18.1912537664175,21.5));
#1648=CARTESIAN_POINT('',(52.8887820740541,14.7539603834351,26.5));
#1649=CARTESIAN_POINT('',(52.8887820740541,14.7539603834351,21.5));
#1650=CARTESIAN_POINT('',(47.9441769421101,10.1879956200719,26.5));
#1651=CARTESIAN_POINT('',(47.9441769421101,10.1879956200719,21.5));
#1652=CARTESIAN_POINT('',(59.8938800394535,20.4998757690192,21.5));
#1653=CARTESIAN_POINT('',(55.3610846400261,17.0369427651167,21.5));
#1654=CARTESIAN_POINT('',(47.9441769421101,10.1879956200719,21.5));
#1655=CARTESIAN_POINT('',(59.8938800394535,20.4998757690192,21.5));
#1656=CARTESIAN_POINT('',(59.8938800394535,20.4998757690192,26.5));
#1657=CARTESIAN_POINT('',(59.8938800394535,20.4998757690192,26.5));
#1658=CARTESIAN_POINT('',(59.8938800394535,20.4998757690192,26.5));
#1659=CARTESIAN_POINT('',(55.3610846400261,17.0369427651167,26.5));
#1660=CARTESIAN_POINT('',(47.9441769421101,10.1879956200719,26.5));
#1661=CARTESIAN_POINT('',(70.6892609596252,28.354438021779,26.5));
#1662=CARTESIAN_POINT('',(70.6892609596252,28.354438021779,21.5));
#1663=CARTESIAN_POINT('',(67.4326568841934,26.3630294551452,26.5));
#1664=CARTESIAN_POINT('',(67.4326568841934,26.3630294551452,21.5));
#1665=CARTESIAN_POINT('',(63.8341965774695,23.7448420375586,26.5));
#1666=CARTESIAN_POINT('',(63.8341965774695,23.7448420375586,21.5));
#1667=CARTESIAN_POINT('',(59.8938800394535,20.4998757690192,26.5));
#1668=CARTESIAN_POINT('',(59.8938800394535,20.4998757690192,21.5));
#1669=CARTESIAN_POINT('',(70.6892609596252,28.354438021779,21.5));
#1670=CARTESIAN_POINT('',(65.8043548464775,25.3673251718283,21.5));
#1671=CARTESIAN_POINT('',(59.8938800394535,20.4998757690192,21.5));
#1672=CARTESIAN_POINT('',(70.6892609596252,28.354438021779,21.5));
#1673=CARTESIAN_POINT('',(70.6892609596252,28.354438021779,26.5));
#1674=CARTESIAN_POINT('',(70.6892609596252,28.354438021779,26.5));
#1675=CARTESIAN_POINT('',(70.6892609596252,28.354438021779,26.5));
#1676=CARTESIAN_POINT('',(65.8043548464775,25.3673251718283,26.5));
#1677=CARTESIAN_POINT('',(59.8938800394535,20.4998757690192,26.5));
#1678=CARTESIAN_POINT('',(85.6289714574814,37.4341886490583,26.5));
#1679=CARTESIAN_POINT('',(85.6289714574814,37.4341886490583,21.5));
#1680=CARTESIAN_POINT('',(79.6449283758799,34.181559458375,26.5));
#1681=CARTESIAN_POINT('',(79.6449283758799,34.181559458375,21.5));
#1682=CARTESIAN_POINT('',(74.6650248765945,31.1549759159486,26.5));
#1683=CARTESIAN_POINT('',(74.6650248765945,31.1549759159486,21.5));
#1684=CARTESIAN_POINT('',(70.6892609596252,28.354438021779,26.5));
#1685=CARTESIAN_POINT('',(70.6892609596252,28.354438021779,21.5));
#1686=CARTESIAN_POINT('',(85.6289714574814,37.4341886490583,21.5));
#1687=CARTESIAN_POINT('',(76.6529068350792,32.5552448630333,21.5));
#1688=CARTESIAN_POINT('',(70.6892609596252,28.354438021779,21.5));
#1689=CARTESIAN_POINT('',(85.6289714574814,37.4341886490583,21.5));
#1690=CARTESIAN_POINT('',(85.6289714574814,37.4341886490583,26.5));
#1691=CARTESIAN_POINT('',(85.6289714574814,37.4341886490583,26.5));
#1692=CARTESIAN_POINT('',(85.6289714574814,37.4341886490583,26.5));
#1693=CARTESIAN_POINT('',(76.6529068350792,32.5552448630333,26.5));
#1694=CARTESIAN_POINT('',(70.6892609596252,28.354438021779,26.5));
#1695=CARTESIAN_POINT('',(85.6289714574814,37.4341886490583,26.5));
#1696=CARTESIAN_POINT('',(85.6289714574814,37.4341886490583,21.5));
#1697=CARTESIAN_POINT('',(81.4216583967209,37.4341886490583,26.5));
#1698=CARTESIAN_POINT('',(81.4216583967209,37.4341886490583,21.5));
#1699=CARTESIAN_POINT('',(79.1419446468353,37.3933960994085,26.5));
#1700=CARTESIAN_POINT('',(79.1419446468353,37.3933960994085,21.5));
#1701=CARTESIAN_POINT('',(78.7898302078247,37.3118110001087,26.5));
#1702=CARTESIAN_POINT('',(78.7898302078247,37.3118110001087,21.5));
#1703=CARTESIAN_POINT('',(85.6289714574814,37.4341886490583,21.5));
#1704=CARTESIAN_POINT('',(79.3180018663406,37.4341886490583,21.5));
#1705=CARTESIAN_POINT('',(78.7898302078247,37.3118110001087,21.5));
#1706=CARTESIAN_POINT('',(78.7898302078247,37.3118110001087,21.5));
#1707=CARTESIAN_POINT('',(78.7898302078247,37.3118110001087,26.5));
#1708=CARTESIAN_POINT('',(78.7898302078247,37.3118110001087,26.5));
#1709=CARTESIAN_POINT('',(85.6289714574814,37.4341886490583,26.5));
#1710=CARTESIAN_POINT('',(79.3180018663406,37.4341886490583,26.5));
#1711=CARTESIAN_POINT('',(78.7898302078247,37.3118110001087,26.5));
#1712=CARTESIAN_POINT('',(68.5566961765289,35.7063673436641,26.5));
#1713=CARTESIAN_POINT('',(68.5566961765289,35.7063673436641,21.5));
#1714=CARTESIAN_POINT('',(70.6383188565572,36.3053965071837,26.5));
#1715=CARTESIAN_POINT('',(70.6383188565572,36.3053965071837,21.5));
#1716=CARTESIAN_POINT('',(74.0493635336558,36.8405443926652,26.5));
#1717=CARTESIAN_POINT('',(74.0493635336558,36.8405443926652,21.5));
#1718=CARTESIAN_POINT('',(78.7898302078247,37.3118110001087,26.5));
#1719=CARTESIAN_POINT('',(78.7898302078247,37.3118110001087,21.5));
#1720=CARTESIAN_POINT('',(68.5566961765289,35.7063673436641,21.5));
#1721=CARTESIAN_POINT('',(71.6791301965714,36.6049110889435,21.5));
#1722=CARTESIAN_POINT('',(78.7898302078247,37.3118110001087,21.5));
#1723=CARTESIAN_POINT('',(68.5566961765289,35.7063673436641,26.5));
#1724=CARTESIAN_POINT('',(71.6791301965714,36.6049110889435,26.5));
#1725=CARTESIAN_POINT('',(78.7898302078247,37.3118110001087,26.5));
#1726=CARTESIAN_POINT('',(101.825311702366,17.5018139416352,26.5));
#1727=CARTESIAN_POINT('',(101.825311702366,17.5018139416352,21.5));
#1728=MECHANICAL_DESIGN_GEOMETRIC_PRESENTATION_REPRESENTATION('',(#860),
#1735);
#1729=MECHANICAL_DESIGN_GEOMETRIC_PRESENTATION_REPRESENTATION('',(#861),
#1736);
#1730=MECHANICAL_DESIGN_GEOMETRIC_PRESENTATION_REPRESENTATION('',(#862),
#1737);
#1731=MECHANICAL_DESIGN_GEOMETRIC_PRESENTATION_REPRESENTATION('',(#863),
#1738);
#1732=MECHANICAL_DESIGN_GEOMETRIC_PRESENTATION_REPRESENTATION('',(#864),
#1739);
#1733=MECHANICAL_DESIGN_GEOMETRIC_PRESENTATION_REPRESENTATION('',(#865),
#1740);
#1734=MECHANICAL_DESIGN_GEOMETRIC_PRESENTATION_REPRESENTATION('',(#866),
#1741);
#1735=(
GEOMETRIC_REPRESENTATION_CONTEXT(3)
GLOBAL_UNCERTAINTY_ASSIGNED_CONTEXT((#1742))
GLOBAL_UNIT_ASSIGNED_CONTEXT((#1763,#1756,#1749))
REPRESENTATION_CONTEXT('Part 23','TOP_LEVEL_ASSEMBLY_PART')
);
#1736=(
GEOMETRIC_REPRESENTATION_CONTEXT(3)
GLOBAL_UNCERTAINTY_ASSIGNED_CONTEXT((#1743))
GLOBAL_UNIT_ASSIGNED_CONTEXT((#1764,#1757,#1750))
REPRESENTATION_CONTEXT('Part 24','TOP_LEVEL_ASSEMBLY_PART')
);
#1737=(
GEOMETRIC_REPRESENTATION_CONTEXT(3)
GLOBAL_UNCERTAINTY_ASSIGNED_CONTEXT((#1744))
GLOBAL_UNIT_ASSIGNED_CONTEXT((#1765,#1758,#1751))
REPRESENTATION_CONTEXT('Part 25','TOP_LEVEL_ASSEMBLY_PART')
);
#1738=(
GEOMETRIC_REPRESENTATION_CONTEXT(3)
GLOBAL_UNCERTAINTY_ASSIGNED_CONTEXT((#1745))
GLOBAL_UNIT_ASSIGNED_CONTEXT((#1766,#1759,#1752))
REPRESENTATION_CONTEXT('Part 26','TOP_LEVEL_ASSEMBLY_PART')
);
#1739=(
GEOMETRIC_REPRESENTATION_CONTEXT(3)
GLOBAL_UNCERTAINTY_ASSIGNED_CONTEXT((#1746))
GLOBAL_UNIT_ASSIGNED_CONTEXT((#1767,#1760,#1753))
REPRESENTATION_CONTEXT('Part 22','TOP_LEVEL_ASSEMBLY_PART')
);
#1740=(
GEOMETRIC_REPRESENTATION_CONTEXT(3)
GLOBAL_UNCERTAINTY_ASSIGNED_CONTEXT((#1747))
GLOBAL_UNIT_ASSIGNED_CONTEXT((#1768,#1761,#1754))
REPRESENTATION_CONTEXT('Part 21','TOP_LEVEL_ASSEMBLY_PART')
);
#1741=(
GEOMETRIC_REPRESENTATION_CONTEXT(3)
GLOBAL_UNCERTAINTY_ASSIGNED_CONTEXT((#1748))
GLOBAL_UNIT_ASSIGNED_CONTEXT((#1769,#1762,#1755))
REPRESENTATION_CONTEXT('Part 20','TOP_LEVEL_ASSEMBLY_PART')
);
#1742=UNCERTAINTY_MEASURE_WITH_UNIT(LENGTH_MEASURE(1.E-5),#1763,
'DISTANCE_ACCURACY_VALUE','Maximum Tolerance applied to model');
#1743=UNCERTAINTY_MEASURE_WITH_UNIT(LENGTH_MEASURE(1.E-5),#1764,
'DISTANCE_ACCURACY_VALUE','Maximum Tolerance applied to model');
#1744=UNCERTAINTY_MEASURE_WITH_UNIT(LENGTH_MEASURE(1.E-5),#1765,
'DISTANCE_ACCURACY_VALUE','Maximum Tolerance applied to model');
#1745=UNCERTAINTY_MEASURE_WITH_UNIT(LENGTH_MEASURE(1.E-5),#1766,
'DISTANCE_ACCURACY_VALUE','Maximum Tolerance applied to model');
#1746=UNCERTAINTY_MEASURE_WITH_UNIT(LENGTH_MEASURE(1.E-5),#1767,
'DISTANCE_ACCURACY_VALUE','Maximum Tolerance applied to model');
#1747=UNCERTAINTY_MEASURE_WITH_UNIT(LENGTH_MEASURE(1.E-5),#1768,
'DISTANCE_ACCURACY_VALUE','Maximum Tolerance applied to model');
#1748=UNCERTAINTY_MEASURE_WITH_UNIT(LENGTH_MEASURE(1.E-5),#1769,
'DISTANCE_ACCURACY_VALUE','Maximum Tolerance applied to model');
#1749=(
NAMED_UNIT(*)
SI_UNIT($,.STERADIAN.)
SOLID_ANGLE_UNIT()
);
#1750=(
NAMED_UNIT(*)
SI_UNIT($,.STERADIAN.)
SOLID_ANGLE_UNIT()
);
#1751=(
NAMED_UNIT(*)
SI_UNIT($,.STERADIAN.)
SOLID_ANGLE_UNIT()
);
#1752=(
NAMED_UNIT(*)
SI_UNIT($,.STERADIAN.)
SOLID_ANGLE_UNIT()
);
#1753=(
NAMED_UNIT(*)
SI_UNIT($,.STERADIAN.)
SOLID_ANGLE_UNIT()
);
#1754=(
NAMED_UNIT(*)
SI_UNIT($,.STERADIAN.)
SOLID_ANGLE_UNIT()
);
#1755=(
NAMED_UNIT(*)
SI_UNIT($,.STERADIAN.)
SOLID_ANGLE_UNIT()
);
#1756=(
NAMED_UNIT(*)
PLANE_ANGLE_UNIT()
SI_UNIT($,.RADIAN.)
);
#1757=(
NAMED_UNIT(*)
PLANE_ANGLE_UNIT()
SI_UNIT($,.RADIAN.)
);
#1758=(
NAMED_UNIT(*)
PLANE_ANGLE_UNIT()
SI_UNIT($,.RADIAN.)
);
#1759=(
NAMED_UNIT(*)
PLANE_ANGLE_UNIT()
SI_UNIT($,.RADIAN.)
);
#1760=(
NAMED_UNIT(*)
PLANE_ANGLE_UNIT()
SI_UNIT($,.RADIAN.)
);
#1761=(
NAMED_UNIT(*)
PLANE_ANGLE_UNIT()
SI_UNIT($,.RADIAN.)
);
#1762=(
NAMED_UNIT(*)
PLANE_ANGLE_UNIT()
SI_UNIT($,.RADIAN.)
);
#1763=(
LENGTH_UNIT()
NAMED_UNIT(*)
SI_UNIT(.MILLI.,.METRE.)
);
#1764=(
LENGTH_UNIT()
NAMED_UNIT(*)
SI_UNIT(.MILLI.,.METRE.)
);
#1765=(
LENGTH_UNIT()
NAMED_UNIT(*)
SI_UNIT(.MILLI.,.METRE.)
);
#1766=(
LENGTH_UNIT()
NAMED_UNIT(*)
SI_UNIT(.MILLI.,.METRE.)
);
#1767=(
LENGTH_UNIT()
NAMED_UNIT(*)
SI_UNIT(.MILLI.,.METRE.)
);
#1768=(
LENGTH_UNIT()
NAMED_UNIT(*)
SI_UNIT(.MILLI.,.METRE.)
);
#1769=(
LENGTH_UNIT()
NAMED_UNIT(*)
SI_UNIT(.MILLI.,.METRE.)
);
#1770=PRODUCT_DEFINITION_SHAPE('','',#1777);
#1771=PRODUCT_DEFINITION_SHAPE('','',#1778);
#1772=PRODUCT_DEFINITION_SHAPE('','',#1779);
#1773=PRODUCT_DEFINITION_SHAPE('','',#1780);
#1774=PRODUCT_DEFINITION_SHAPE('','',#1781);
#1775=PRODUCT_DEFINITION_SHAPE('','',#1782);
#1776=PRODUCT_DEFINITION_SHAPE('','',#1783);
#1777=PRODUCT_DEFINITION('','',#1791,#1784);
#1778=PRODUCT_DEFINITION('','',#1792,#1785);
#1779=PRODUCT_DEFINITION('','',#1793,#1786);
#1780=PRODUCT_DEFINITION('','',#1794,#1787);
#1781=PRODUCT_DEFINITION('','',#1795,#1788);
#1782=PRODUCT_DEFINITION('','',#1796,#1789);
#1783=PRODUCT_DEFINITION('','',#1797,#1790);
#1784=PRODUCT_DEFINITION_CONTEXT('',#1833,'design');
#1785=PRODUCT_DEFINITION_CONTEXT('',#1834,'design');
#1786=PRODUCT_DEFINITION_CONTEXT('',#1835,'design');
#1787=PRODUCT_DEFINITION_CONTEXT('',#1836,'design');
#1788=PRODUCT_DEFINITION_CONTEXT('',#1837,'design');
#1789=PRODUCT_DEFINITION_CONTEXT('',#1838,'design');
#1790=PRODUCT_DEFINITION_CONTEXT('',#1839,'design');
#1791=PRODUCT_DEFINITION_FORMATION_WITH_SPECIFIED_SOURCE('','',#1805,
 .NOT_KNOWN.);
#1792=PRODUCT_DEFINITION_FORMATION_WITH_SPECIFIED_SOURCE('','',#1806,
 .NOT_KNOWN.);
#1793=PRODUCT_DEFINITION_FORMATION_WITH_SPECIFIED_SOURCE('','',#1807,
 .NOT_KNOWN.);
#1794=PRODUCT_DEFINITION_FORMATION_WITH_SPECIFIED_SOURCE('','',#1808,
 .NOT_KNOWN.);
#1795=PRODUCT_DEFINITION_FORMATION_WITH_SPECIFIED_SOURCE('','',#1809,
 .NOT_KNOWN.);
#1796=PRODUCT_DEFINITION_FORMATION_WITH_SPECIFIED_SOURCE('','',#1810,
 .NOT_KNOWN.);
#1797=PRODUCT_DEFINITION_FORMATION_WITH_SPECIFIED_SOURCE('','',#1811,
 .NOT_KNOWN.);
#1798=PRODUCT_RELATED_PRODUCT_CATEGORY('','',(#1805));
#1799=PRODUCT_RELATED_PRODUCT_CATEGORY('','',(#1806));
#1800=PRODUCT_RELATED_PRODUCT_CATEGORY('','',(#1807));
#1801=PRODUCT_RELATED_PRODUCT_CATEGORY('','',(#1808));
#1802=PRODUCT_RELATED_PRODUCT_CATEGORY('','',(#1809));
#1803=PRODUCT_RELATED_PRODUCT_CATEGORY('','',(#1810));
#1804=PRODUCT_RELATED_PRODUCT_CATEGORY('','',(#1811));
#1805=PRODUCT('Part 23','Part 23','Part 23',(#1819));
#1806=PRODUCT('Part 24','Part 24','Part 24',(#1820));
#1807=PRODUCT('Part 25','Part 25','Part 25',(#1821));
#1808=PRODUCT('Part 26','Part 26','Part 26',(#1822));
#1809=PRODUCT('Part 22','Part 22','Part 22',(#1823));
#1810=PRODUCT('Part 21','Part 21','Part 21',(#1824));
#1811=PRODUCT('Part 20','Part 20','Part 20',(#1825));
#1812=PRODUCT_CATEGORY('','');
#1813=PRODUCT_CATEGORY('','');
#1814=PRODUCT_CATEGORY('','');
#1815=PRODUCT_CATEGORY('','');
#1816=PRODUCT_CATEGORY('','');
#1817=PRODUCT_CATEGORY('','');
#1818=PRODUCT_CATEGORY('','');
#1819=PRODUCT_CONTEXT('',#1833,'mechanical');
#1820=PRODUCT_CONTEXT('',#1834,'mechanical');
#1821=PRODUCT_CONTEXT('',#1835,'mechanical');
#1822=PRODUCT_CONTEXT('',#1836,'mechanical');
#1823=PRODUCT_CONTEXT('',#1837,'mechanical');
#1824=PRODUCT_CONTEXT('',#1838,'mechanical');
#1825=PRODUCT_CONTEXT('',#1839,'mechanical');
#1826=APPLICATION_PROTOCOL_DEFINITION('international standard',
'ap242_managed_model_based_3d_engineering',2020,#1833);
#1827=APPLICATION_PROTOCOL_DEFINITION('international standard',
'ap242_managed_model_based_3d_engineering',2020,#1834);
#1828=APPLICATION_PROTOCOL_DEFINITION('international standard',
'ap242_managed_model_based_3d_engineering',2020,#1835);
#1829=APPLICATION_PROTOCOL_DEFINITION('international standard',
'ap242_managed_model_based_3d_engineering',2020,#1836);
#1830=APPLICATION_PROTOCOL_DEFINITION('international standard',
'ap242_managed_model_based_3d_engineering',2020,#1837);
#1831=APPLICATION_PROTOCOL_DEFINITION('international standard',
'ap242_managed_model_based_3d_engineering',2020,#1838);
#1832=APPLICATION_PROTOCOL_DEFINITION('international standard',
'ap242_managed_model_based_3d_engineering',2020,#1839);
#1833=APPLICATION_CONTEXT('managed model based 3d engineering');
#1834=APPLICATION_CONTEXT('managed model based 3d engineering');
#1835=APPLICATION_CONTEXT('managed model based 3d engineering');
#1836=APPLICATION_CONTEXT('managed model based 3d engineering');
#1837=APPLICATION_CONTEXT('managed model based 3d engineering');
#1838=APPLICATION_CONTEXT('managed model based 3d engineering');
#1839=APPLICATION_CONTEXT('managed model based 3d engineering');
ENDSEC;
END-ISO-10303-21;
